<?xml version="1.0" encoding="utf-8"?>
<!-- Generator: Adobe Illustrator 26.3.1, SVG Export Plug-In . SVG Version: 6.00 Build 0)  -->
<svg version="1.2" baseProfile="tiny" xmlns="http://www.w3.org/2000/svg" xmlns:xlink="http://www.w3.org/1999/xlink" x="0px"
	 y="0px" viewBox="0 0 700 500" overflow="visible" xml:space="preserve">
<g id="basemap">
	<rect id="background" fill="#E8E5D8" width="700" height="500"/>
	<path id="waterway" fill="none" stroke="#94C1E1" d="M560.964,480.561l-59.492,89.396l-92.229,186.032l-44.383,148.574
		 M-573.485,182.469l11.017,12.591l15.739,8.184l185.717,40.291l104.505-16.683l54.771-10.073l31.477,0.944l30.533,13.535
		l16.054,11.332l29.274,24.867l16.998,24.867l50.364,126.54l22.034,27.385l17.942,17.313l75.231,83.415l113.949,84.045
		l162.424,103.246l44.698,21.719 M566.315-131.676l89.396,102.931L713.63,104.09l10.073,66.732l-28.015,107.338L520.673,540.998"/>
	<path id="water" fill="#94C1E1" d="M-142.873,202.929l7.869,5.666l9.758,10.388l11.647,10.073l26.441,17.313l28.015,23.293
		l34.31,123.392l19.201,30.218l8.814,5.981l16.683,16.998l59.807,56.974l18.257,15.739l32.107,33.681l29.904,24.552l0.63-0.315
		l16.054,12.906l-0.315,1.259l27.385,22.979l21.405,14.48l118.041,73.028l6.925,7.24l4.722,2.833v0.63l6.61,2.833h5.981l6.925-4.092
		l-21.09,49.105l0.63-3.463l-2.203-12.906l-2.518-3.463l-7.869-7.555l-11.647-5.351l-134.094-84.36l-60.752-45.957l0.63-0.944
		l-39.662-33.366l-5.981-0.63l-22.034-12.906l-5.981-8.499L4.442,475.839L-11.612,460.1l-15.739-20.775l-28.33-40.606l-8.814-17.313
		l-3.463-23.608l-5.981-16.998l-31.163-55.715l-21.09-11.961l-34.94-33.051l-7.555-2.203l-38.403,5.036l-4.407-40.291l47.846-5.036
		L-142.873,202.929z M560.964,569.957l-19.516,32.422l-85.304,157.702l-2.518,7.24l-9.443,51.308l-7.869,32.422l-3.777,26.756
		v26.756H318.902l2.518-5.666l31.792-138.816l21.09-49.105l121.188-230.73l65.473-93.488V569.957z M707.649,360.002l-25.497,35.884
		l-32.107,42.809L636.51,454.12l-14.794,15.424l-5.351,7.869l-74.916,124.966l-20.775,38.717V444.362L621.401,299.88
		L707.649,360.002z M701.354-28.43l36.514,73.657l16.053,55.715l5.666,35.255l0.944,53.827l-1.889,22.034l-4.092,27.071l0.63,18.886
		l2.518,6.61l6.295,7.555l9.758,3.463l2.518-0.315l-1.889,20.146l-14.165,2.203l-10.388,3.777l-9.758,6.296l-8.499,11.961
		l-11.961,22.034l-11.961,18.257l-86.248-60.122l20.146-36.514l20.775-58.233l13.85-52.253l-0.315-23.923l-9.758-38.403
		l-33.681-59.807l-39.032-50.364l86.248-41.865L701.354-28.43z"/>
	
		<path id="road_path" fill="none" stroke="#FFFFFF" stroke-width="1.503" stroke-linejoin="bevel" stroke-dasharray="1.332,1.332" d="
		M324.253,424.846l16.998-10.388 M3.183,473.006l16.054-31.478 M6.016,428.938l-18.257,34.94 M357.305,437.751l-16.053-23.293
		l-5.036-8.184 M560.964,382.036l-35.255,51.308l-23.923,32.737l-13.221,22.349l-25.182,48.79l-2.518,3.463l-42.495,84.36
		l-40.291,76.176 M73.063,70.724l-1.259,5.351 M318.272,389.276l6.296-5.036l-13.221-18.257l-6.925,4.407 M300.33,364.724
		l-4.092-7.24 M181.345,358.743l9.758,14.794l4.092,0.944l35.57-19.831 M506.508,37.987l-2.833-4.722 M503.675,9.972l1.574,1.259
		l5.981,0.315l25.182-1.889l6.296,0.315 M513.118,34.21l-2.833-4.722 M508.711,30.433l33.996-19.201 M520.987,10.602l-2.203,4.407
		l-3.148,11.332 M535.152-7.025l0.63,3.463l-1.259,3.777l-2.203,4.092l-4.092,4.092l-3.463,1.889 M498.324,12.491l5.351-2.518V5.88
		l0.944-5.666l3.777-7.24l3.463-3.463l5.036-3.148l4.722-0.63l8.184,0.63l5.351,6.61l2.203-0.944l3.777,1.889l2.203,2.518
		l4.407,8.499 M79.988,222.76l18.257,27.071l7.24,9.758l23.608,34.31l0.944,1.889v1.889 M137.906,293.27l-3.148-1.574
		l-17.313-24.552l-24.552-36.199l-8.184-11.017 M210.934,125.81l3.777,0.63l3.777,6.61l8.499,12.906l43.439,63.899l-0.315,3.463
		 M277.981,208.91l-2.833-1.574l-19.516-28.645l-1.259-2.518l-24.238-35.255l-11.017-17.627l-0.315-1.889 M560.964,216.779
		l-32.107,31.792l-2.833,0.315 M532.005,255.182l0.315-1.574l1.574-1.889l27.071-26.441 M360.138-139.231l1.889,0.315l21.09,32.737
		l0.944,2.203l29.589,45.013l8.499,13.221l0.315,1.259l5.981,8.499l38.403,60.437l27.071,40.606l7.555,12.276v2.203 M148.294,18.471
		l-1.889-1.259L134.444-0.415l-6.296-8.184l-18.257-26.126l-5.666-7.24l0.63-3.463l62.64-49.734l4.092-3.777l14.48-10.702
		l35.57-30.218l23.608-17.942l3.463-0.63 M356.675,22.563l17.627-5.666 M374.302,16.897l0.315-2.203l2.203-4.092l56.345-37.143
		l0.63,0.315l2.203-1.259 M357.934-6.711L343.769,3.992 M353.842,427.049l-7.24,4.407 M339.048,405.33l14.794,21.719
		 M324.253,424.846l0.315,2.833 M331.808,408.163l4.722-2.518l2.518-0.315 M336.215,406.274l0.315-0.63 M357.305,437.751
		l-3.463,5.351 M36.234,348.985l0.315,14.48 M337.789,417.606l5.036-0.315 M27.735,430.512l2.833-5.036 M60.787,366.298l3.463-7.869
		 M16.089,408.163l15.109,11.332 M49.769,441.529l-19.201-16.053l-0.315-3.463l24.867-52.253l3.148-4.092l2.518,0.63l3.463,3.148
		l12.906,18.886 M37.178,365.038l5.666,0.63l12.276,4.092 M137.277,167.989l2.518-0.315 M-11.297,369.131l41.865-6.925l5.981,1.259
		l1.574,4.092l-22.034,40.606l-4.722,0.63L-11.297,369.131 M128.463,298.936l9.443,15.109 M140.11,292.011l9.443,15.109
		 M57.639,343.319l9.443,13.221 M240.208,252.034l1.889-0.63l1.259,0.63 M201.806,274.383l-1.889,1.259l0.63,2.518 M206.842,234.407
		l-1.574-2.203l0.315-1.889 M195.825,238.814l-0.944-1.574l-3.463-0.944 M146.72,149.418l1.889-1.259 M338.733,450.028
		l-23.608-37.458 M346.602,431.456l3.463-3.777 M328.66,434.289v-1.574 M343.769,458.212l-0.944,9.758 M343.769,458.212
		l-5.036-8.184 M328.345,455.064l-2.833,4.407 M349.12,14.694l2.518,2.518l2.203,3.463 M0.665,279.42l-2.518-3.463 M504.619,77.649
		l5.666-2.833 M512.803,89.925l4.092-2.203 M516.895,87.722l28.33-16.998l15.739-8.499 M508.711,30.433l-11.332,6.295l-7.24,0.315
		l-5.036-1.574l-2.833-3.463l-1.574-5.351l0.944-8.814l1.259-3.777L471.253-4.507l-9.128-3.148l-23.293-36.514l-6.61-4.722
		l-40.291-59.807 M508.711,30.433L487.936-5.452l-4.407-5.036l-16.368-27.385l-17.942-12.591 M141.999,23.822l0.315-2.833
		l-27.7-39.032l-15.109-20.46l-1.259-0.315H97.3L67.712-13.951L44.104,4.621L42.844,6.51v1.889l14.794,19.516l1.889,1.889
		l22.979,33.996l3.777,1.259h4.407l3.463-1.574l116.152-96.321 M85.339,88.981l11.647-8.184 M90.69,65.058L98.56,75.76
		 M141.999,23.822l6.925,10.073 M149.238,17.842l7.869,10.388 M10.423,418.865l-4.407,10.073 M14.2,408.477l-3.777,10.388
		 M34.031,574.679l-56.974-39.032l-1.574-6.61L-9.723,496.3l3.148-4.722l9.758-18.572 M560.964,307.12l-23.923-24.552
		l-13.535-17.627 M526.653,249.516l4.722,5.036 M516.895,256.756l1.574,5.981l5.036,2.203 M505.878,169.248l-21.09,15.739
		l-3.148-0.315l-34.94-52.253l0.63-5.351l65.473-37.143 M368.951,155.084l10.073,15.739 M531.375,254.552l29.589,29.274
		 M516.895,256.756l-38.088-55.4l-2.833-1.259 M489.195,191.283l-1.889,3.777l19.201,25.182l20.146,29.274 M484.788,184.987
		l4.407,6.296 M478.808,201.356l8.499-6.296 M466.531,197.578l9.443,2.518 M300.33,364.724l1.259-3.463l57.289-39.347l27.7,40.921
		l-1.259,2.518l-55.4,36.514l-1.889,0.63 M362.656,456.953l-34.625-54.456 M434.739,140.604l11.961-8.184 M467.161,194.43
		l14.48-9.758 M427.814,104.09l6.296,8.499l5.666,1.889l31.163-17.313l33.681-19.516 M418.371,120.773l15.739-8.184
		 M439.776,114.478l7.555,12.591 M414.908,235.981l-35.884-59.807v-5.351l2.203-2.833l47.216-28.015l6.296,0.63l33.051,49.42
		l-1.259,7.555L414.908,235.981 M416.797,126.439l9.443,14.794 M149.238,174.914l21.719,30.533l11.961,18.886l18.257,24.867
		l-0.63,7.555l-18.886,10.073l-17.942,11.332l-33.681,19.516l-44.383,27.385L55.75,344.578l-4.407-1.889 M417.427,240.388
		l-2.518-4.407 M355.101,185.617l-7.869-15.739 M356.045,184.987l22.979-14.165 M280.499,207.336l10.702,15.739 M268.538,214.261
		l10.702,16.054 M199.917,257.071l10.388,15.739 M348.176,166.73l0.315,2.518l-33.051,17.942l-41.236,23.608l-54.771,33.681
		l-5.036-1.574L195.51,216.15l-35.57-48.161 M200.861,251.719l14.48-8.499 M221.322,243.535l7.869,11.017l3.463,4.092
		 M216.6,273.124l14.794-11.017 M268.223,344.893l12.591-8.499 M328.03,402.497l-27.7-37.773 M296.238,357.484l-15.424-21.09
		l-0.315-3.777 M358.878,321.914l3.148-0.63l2.518-2.203 M123.427,180.58l4.092,6.295 M358.878,321.914l-1.889-3.148
		 M312.292,407.533l7.555-4.722l5.036-4.407 M260.354,308.694L230.45,264.94l2.203-6.296l89.081-54.141l34.31-19.516l6.925,2.518
		l8.814,16.998l13.85,23.293l13.221,17.942l-0.63,5.351l-59.807,35.57l-60.122,40.291l-5.351-0.63L260.354,308.694 M70.859,369.131
		l-6.61-10.702l85.304-51.308l37.773-22.034l24.867-13.535l8.184,2.833l11.332,16.998l30.218,40.921l-0.944,4.722l-15.424,9.443
		 M236.431,358.113l26.441-15.739l2.518-0.315l1.259,0.63l18.886,27.071l22.349,30.533l7.24,12.276 M260.983,337.023l4.407,5.036
		 M276.093,326.636l4.407,5.981 M261.928,332.302l11.017-5.981 M38.123,345.208l12.276-3.777 M366.118,156.657l-17.942,10.073
		 M356.675,22.563l10.073,17.313l28.959,44.068l7.555,12.906l15.109,23.923l-1.574,5.666l-50.679,30.218 M238.005-37.873
		l1.259-3.463l46.901-36.514l5.036,1.574l10.702,15.109l11.647,17.627l30.218,47.531l5.036,7.24l0.315,3.463 M59.842,99.368
		L76.84,88.666l6.61-0.315l1.889,0.63l11.647,15.109l43.439,59.807 M151.757,156.657l-32.107-45.328L96.986,80.797l1.889-5.981
		l50.049-40.921l1.574-0.315 M156.478,28.859l61.696-51.623h2.203 M-15.704-56.13l13.535,20.46l32.422,46.272l18.572,24.552
		l24.238,35.57l0.315,6.925L49.769,90.87l-36.514,22.664l-5.036,1.889l-42.18,23.608l-20.46,8.499l-21.09,7.869l-24.867,7.555
		l-31.477,7.24l-32.737,2.833h-50.679 M150.497,33.58l5.981-4.722 M73.378,77.649l5.981,10.702 M70.23,66.947l9.758-7.24
		 M51.343,342.689l-13.221-20.146l-14.165-23.608l-1.889-2.203L0.665,279.42 M-23.258,275.957l-2.833,1.574v4.092l7.869,48.475
		l1.574,0.63l38.717-6.61l1.574-1.889 M429.703,589.158l9.758-19.831l1.574-12.276l0.63-1.574l18.887-38.717l22.349-40.921
		l6.296-5.981l5.981-4.092l1.889-1.889l9.443-14.165l-2.203-1.259 M476.919,486.856l0.315,3.148l-0.63,3.148l-5.351,16.368
		l-5.666,15.739l-5.981,11.961l1.259,3.463 M478.808,483.079l9.758,5.351 M-1.854,275.957l1.889-2.518l32.107-20.775l5.981-3.148
		l39.976-26.756h1.889l4.722-2.833l0.63-1.889l21.09-15.109l14.794-11.647l23.293-17.313l4.722,0.944l10.702-6.925l-1.889-2.518
		l0.944-2.203l53.197-38.403h1.574l5.036-3.463l0.63-1.889l71.454-51.938l3.463-0.315l3.463-3.148l13.85-10.073l1.259-3.148
		l18.257-13.535l2.518-2.518l20.146-14.165l2.833,1.889 M361.082-6.396l13.535,21.09 M-28.924,361.261l3.463-2.518l3.148-3.463
		l7.24-0.63l2.518,1.574l48.79-7.24l1.889-3.777l-25.497-40.291l-13.85-10.702l-6.925-5.981 M80.617,211.428l-2.203-0.315
		l-5.036,2.833v1.889l4.722,6.925 M27.42,327.895l-44.068,6.61l-0.315,1.574l1.259,16.998l0.63,1.574 M-8.149,288.233l8.814-8.814
		 M349.12,14.694l-18.886,14.794l3.463,5.351 M215.656,113.219l-6.61,4.092l-0.63,1.574l3.777,5.981 M323.309,33.266l-14.794,11.961
		l4.407,5.666 M330.234,29.488l-1.574-0.315l-5.351,4.092l2.518,2.833l1.889,3.463 M308.514,45.227h-2.518l-17.313,12.906
		l-0.944,2.833l2.518,4.092l0.63,2.518 M287.739,60.966l-32.737,23.923l4.407,5.666 M255.003,84.889l-5.666,3.777l4.407,6.296
		 M139.795,167.675l-16.368,12.906 M249.337,88.666l-33.681,24.552l3.777,6.295 M208.416,118.884l-28.959,20.775l3.777,5.981
		 M179.457,139.66l-6.61,4.722l4.092,5.666 M172.846,144.381l-17.942,13.221l4.092,5.666 M154.904,157.602l-3.148-0.944
		l-11.332,7.24l-0.63,3.777l4.722,6.296 M123.427,180.58l-1.889,0.315l-5.351,3.777l5.036,6.61 M116.187,184.672l-35.57,26.756
		l4.722,6.61 M73.378,215.835l-39.662,26.756l4.407,6.925 M33.716,242.591l-5.981,3.463l4.407,6.61 M27.735,246.054l-37.143,24.552
		 M510.285,74.816l50.679-29.904 M510.285,74.816l6.61,12.906 M325.827,548.552h2.203l14.48-16.368v-1.889l-39.976-41.236
		l-2.203-0.315l-17.942,12.591l-0.315,3.148L325.827,548.552 M339.992,469.858l7.555,4.722l16.053,27.7l0.315,5.036l-6.296,8.499
		 M141.054,531.554l5.036,8.184l-0.944,5.036l25.182,27.7h3.148l43.754-33.996l51.623-38.717l0.315-3.148l-12.276-16.998
		l-3.777-4.407l-15.109-23.923 M243.356,448.769l30.533,45.013l3.777-0.315l61.066-43.439 M343.769,458.212l-37.143,25.812
		l-0.315,1.889l39.347,39.976l1.889,0.944l10.073-11.017l-0.315-1.889l-25.182-38.717l10.702-7.24 M334.326,473.636l-5.981-4.407
		 M19.236,441.529l5.981-11.647l5.351,0.944L48.51,446.25l19.516,18.257l47.846,46.587l3.463,4.722l8.814,22.034l9.128,13.535
		l7.869,9.128l15.109,15.739 M152.701,227.797l22.349-15.424 M260.039,7.139l10.388,11.332l7.24,5.666l7.555,8.814l0.944,4.407
		l9.758,12.276 M356.99,159.805l-52.567-96.951 M218.174,331.987l11.961-8.184 M151.127,320.97l41.865-27.7 M162.459,368.816
		l14.794,21.405 M165.921,449.083l25.497-15.424 M367.692,3.992l33.996-22.034l28.015-18.886 M249.652,292.955l4.722-3.777
		 M46.307,169.248l41.236-31.163l21.405-16.998 M67.397,57.503l56.974,78.064 M73.378,53.411l56.03,78.064 M71.804,76.075
		l1.574,2.518 M69.6,86.463l1.259-0.63 M70.545,80.482l5.981-3.777 M78.099,75.446l-1.259-1.574 M87.542,69.78l-0.315-0.63
		 M87.228,69.15l-0.944-1.259 M235.487,282.567l1.574,2.518 M311.033,395.572l-1.574-2.203 M327.086,394.313l-1.889-2.518
		l-15.424,10.073 M136.333,145.955l-3.777-5.351 M78.414,76.075l-0.315-0.63 M91.005,67.576l1.259,1.574 M89.116,68.835
		l-3.463,2.203 M76.525,76.705l3.777-1.574 M69.6,86.463l-0.944,0.63l-2.203-3.777l4.092-2.833 M93.838,65.373l6.296,7.555
		l5.666-4.722l5.036,5.666 M92.894,71.353l-1.259,1.574 M135.073,138.401l-4.722-5.666 M129.408,131.475l0.944,1.259
		 M129.408,142.493l5.666-4.092 M129.408,142.493l-4.092-5.351 M124.371,135.568l0.944,1.574 M140.739,152.565l-4.407-6.61
		 M92.264,69.15l1.574,1.574l-0.944,0.63 M105.799,43.653l6.296,7.869L89.116,68.835 M148.609,148.159l1.259-0.944l-0.315-0.315
		l-1.259,0.63l-7.555,5.036l-9.443,7.24l5.981,8.184 M328.66,432.715l0.944-0.944l16.368-9.443 M328.345,455.064l11.017-6.925
		l-9.758-16.368l-19.831-29.904 M313.866,399.349l-2.833-3.777 M309.459,393.368l-2.518-3.463 M237.061,285.086l1.889,2.833
		 M228.562,280.049l3.148-2.518l3.777,5.036 M201.806,274.383l4.407-2.203l0.944-1.574l11.647-5.981l21.405-12.591 M203.065,240.388
		l46.901,73.028l28.015,40.921l27.071,41.865l4.722,5.666 M195.825,238.814l2.833,4.092l9.758-5.666l-1.574-2.833 M345.973,422.327
		l-2.203-3.463 M345.973,422.327l2.833,3.463 M348.806,425.79l1.259,1.889 M343.769,418.865l-0.944-1.574 M346.602,416.662
		l70.195-43.439 M71.804,87.407L69.6,83.944 M90.375,71.039l2.518,3.463 M308.2,391.48l-1.574,1.259l-26.441-40.291l-42.809-63.27
		l-5.036-8.184l0.315-1.574 M308.2,391.48l1.889-0.63l-26.126-40.921l-43.439-62.955l-5.666-7.555h-2.203 M237.375,289.178
		l3.148-2.203 M308.829,388.961l-3.463,1.889 M86.283,67.891l-9.443,5.981 M704.816,386.128l-102.302-65.473 M612.902,32.951
		l11.017-8.499l90.34-52.882 M604.088,19.101l12.276-5.981l91.914-52.882 M696.632,398.719l-101.987-65.788 M617.938,479.617
		l6.61-10.073 M663.266,142.178l-2.833,20.146l-5.666,20.775l5.036,1.889l-2.203,5.981 M607.551,309.953l-3.777,6.61l-4.092-2.518
		 M657.6,190.968l2.203,0.63l-1.889,5.981 M667.987,148.473l0.315-4.407 M657.6,180.58l9.758-27.071l0.63-5.036l1.259,0.315
		l-5.981,35.57 M591.497,226.538l48.79-45.957l3.148-4.722l2.833-5.981l8.184-17.942l3.463-8.814l5.351,0.63 M663.266,143.752
		l9.443,0.63 M595.904,1.159l1.574-1.574l3.777,3.777l2.518-2.518 M520.673,68.835l48.475-28.959l0.63-0.944l25.812-14.165
		l0.63-1.574l4.092,0.63l3.463-1.889l0.315-2.833 M605.662,38.302l4.722,0.63l3.777,1.574l3.463,2.203l2.518,2.833l4.092,8.184
		 M569.148,39.876l8.499,12.906 M595.589,4.621l1.889-2.203L594.645-0.1l-2.203,2.203 M604.088,19.101l-8.499-14.48L565.371-21.19
		 M592.441,2.103L580.48-5.452l-2.203,1.889 M588.979,329.469l-1.889,1.574l3.777,4.722l-3.777,5.666l2.518,2.203 M520.673,645.818
		l19.831-36.514l32.107-54.771l32.422-52.253l12.906-22.664 M663.266,133.049v9.128 M663.266,133.049l-5.981-3.148 M639.972,148.473
		l-3.777-4.407 M626.752,25.396L596.219-7.34l-31.792-27.385l-12.906-12.906l-30.848-36.199 M649.101,480.246l-28.645,47.846
		l1.259,3.463l122.133,58.548 M607.236,320.026l-17.627,23.608l-16.053,20.46l-47.846,69.25l-5.036,6.61 M594.645,332.931
		l-5.666-3.463 M520.673,690.831l23.293-42.495l10.388-21.405l48.161-84.36l32.737-52.567l13.535-22.664l29.589-41.865
		l19.831-25.812l-1.574-0.944 M678.06,406.589l2.203,1.574l4.722-5.981l1.259,1.574l2.518-2.203l5.666,2.833 M624.548,469.544
		l24.552-26.126l28.959-36.829l36.829-49.42l20.146-36.514l5.981-9.443l7.555-5.981l8.184-3.777l10.388-1.889l58.233-4.722
		l9.758,0.315 M520.673,10.917l15.739-1.259l6.296,0.315 M520.673,23.822l22.034-12.591 M520.673-13.951l0.944-0.315l8.184,0.63
		l5.351,6.61l2.203-0.944l3.777,1.889l2.203,2.518l4.407,8.499 M554.039,10.287l-1.889-3.463l-2.518-1.574l-3.463-0.315
		l-2.518,1.889l-0.944,3.148v3.148l1.574,2.833 M642.491,138.086l-28.015,27.385l-3.463,2.518l-82.156,80.582l-2.833,0.315
		 M532.005,255.182l0.315-1.574l1.574-1.889l39.662-39.032l68.621-66.732l7.24-5.981l3.777-3.777l4.092-6.295 M520.673,85.518
		l24.552-14.794l58.233-32.422h2.203 M588.979,329.469l-11.961-8.184l-13.85-11.961l-26.126-26.756l-13.535-17.627 M698.206,399.664
		l4.092,2.833 M531.375,254.552l29.589,29.274l26.126,22.349 M605.662,38.302l1.259-5.036l3.148-1.574l1.574,0.315l1.259,0.944
		 M655.711,179.636l1.889,0.944 M602.514,320.655l-4.722-3.777l1.889-2.833l-12.591-7.869"/>
	<path id="road_minor" fill="none" stroke="#FFFFFF" stroke-width="4.0734" stroke-linecap="round" stroke-linejoin="round" d="
		M452.681,360.002l-2.833-1.889l-2.518-3.463l-0.315-2.518l0.944-4.722l1.889-2.833l6.296-4.092l4.722-0.944l3.463,1.574
		l2.518,2.203l0.63,3.463l-0.315,3.463l-0.944,1.574l-1.889,1.574l-1.889,0.944h-1.889l-4.092-1.259l-1.889-1.259 M464.643,361.576
		l-4.407,0.315l-7.555-1.889 M472.827,366.612l-2.518-0.315l-9.758,1.889l-6.61,0.63 M475.66,347.096l7.24,9.443 M334.326,414.143
		l-2.203,3.777l-4.092,15.739l-2.833,14.48l-2.833,4.407 M326.457,441.214l-3.463,3.463l-5.981,1.889l-4.722-0.63l-3.777-2.518
		 M452.681,360.002l-12.276-0.63 M480.067,352.447v1.574l-0.944,2.518l-10.073,10.073 M231.709-41.021l3.148,5.666l26.126,32.107
		l10.388,11.961l34.31,43.124l42.495,78.694l16.683,33.366l47.846,80.268l46.901,72.083l25.812,12.276l22.979,5.666l46.587-44.698
		 M271.371,8.713l28.015-20.146l28.33-18.572 M237.69,156.657l44.698-25.812l29.274-15.739l10.702-6.296 M114.298,217.724
		l-20.775,14.48l-4.407,4.092L44.733,264.94L5.386,291.381 M335.9-17.098L307.57,1.159L280.814,20.36 M267.908,168.304
		l-11.332-22.349l-5.666-9.128l-3.777-7.555 M370.84,37.043l-28.33,19.831l-25.182,16.368 M9.793,359.372l-5.981-32.107
		l-5.036-33.051l1.574-6.61 M291.517,33.895l25.497-18.257l27.7-18.886 M425.925-42.91l-69.25,46.587l-0.944,10.388
		 M102.022,201.041l22.664,31.477 M154.904,113.219l-28.645,21.719 M125.63,284.456l-79.323,50.679l-3.777,4.407 M58.268,186.246
		l42.809-29.904l26.441-19.516 M214.397,34.525l13.221,19.201l42.809,58.233l11.961,18.886l35.57,60.752 M189.215,220.242
		l28.959-18.572l31.792-21.405l4.407-4.092l80.268-45.328 M164.662,126.439l37.458-25.497l80.582-60.122 M333.382,102.831
		l56.345-37.458 M145.461,217.724l-20.775,14.794l-21.09,14.165l-24.238,15.424l-61.066,40.291 M102.337,101.257l-5.351,2.833
		l-21.719,16.683L35.29,153.195l-44.383,33.051 M452.052-3.878l-70.824,45.957 M560.964,6.195l-76.805,44.383l-31.478,18.886
		L413.02,91.184 M33.086,325.692l-53.197,7.24 M88.802,330.098L70.23,301.454l-36.514-52.567 M396.022,145.64L327.086,30.748
		l-64.214-97.265 M234.857-10.803l-70.51,58.233l-63.899,50.994 M147.35,220.557l28.959-18.572 M476.604,34.525l-32.422,21.719
		L405.78,80.482 M524.135,27.915l19.201,33.366 M206.842,12.491l14.165,16.683 M85.024,420.754l-9.758-14.794l-4.722-5.351
		 M177.568,466.081l-30.533,17.942 M107.059,406.589l-18.572-27.7 M136.647,223.705l-20.146-28.645 M122.168,234.092l6.925,10.073
		 M374.932,502.595l4.407-5.981 M289.313,143.122l22.664-12.276 M311.662,115.107l-5.981-10.388l-54.771,32.107 M172.532,254.238
		l-16.683,11.647l11.017,17.313 M122.482,185.932L55.75,93.702 M307.57,330.098l41.55-28.33 M287.11,265.884l-18.257,11.961
		 M476.289,419.18l13.221-17.942 M364.23,15.953l69.565-46.587 M189.215,220.242L161.2,239.128l-44.383,32.107l-21.719,13.535
		l-62.011,40.921 M399.799,81.741l-58.863,35.255 M389.726,54.67l37.773-24.552 M80.617,170.822l21.405,30.218 M504.619,77.649
		l-8.499-13.85l-19.516-29.274L453.311-1.989l-17.313-25.497 M16.403,417.921l-4.407-3.148l-0.944-1.259l-24.238-39.662
		l-3.777-10.073 M277.667,216.15l-49.734-73.657l-13.85-22.979 M359.193,317.193l-17.942-27.385l-19.516-22.034l-18.257-22.664
		l-19.516-22.979 M79.673,217.409l57.919,84.045 M12.941,218.353l-22.034-32.107l-22.979-42.18 M33.716,248.887l-20.775-30.533
		 M137.592,301.454l3.777,5.666 M283.962,222.131l-6.296-5.981 M452.052,323.803l-48.475-74.602l-43.754-73.028l-62.011-112.06
		L282.703,40.82l-15.739-16.683L248.707,6.825l-13.85-17.627l-16.998-19.201L202.75-52.353l-16.054-22.034l-17.313-22.664
		l-2.203-5.666l-13.535-16.998l-36.829-49.42l-33.996-47.216l-0.944-3.148l-14.48-19.516l-34.31-50.049l-35.255-45.957
		l-36.829-50.049l-33.681-39.976 M422.778,106.923l-36.829,21.719 M-169.943-214.777l23.923,34.625l21.405,24.238l16.054,22.349
		l19.516,25.182l10.073,30.533l11.647,30.533l36.514,105.135l39.032,57.604l27.071,37.773l44.383,64.214 M420.26-302.599
		l-0.63,4.092l-1.259,1.574l-57.289,42.495l-100.413,79.953l-10.702,10.073l-27.071,20.775l-40.921,33.366l-40.291,31.792
		L99.819-43.854l-34.31,26.756L36.234,7.139 M459.606,316.248l-7.555,7.555l-60.752,41.55l-67.677,42.495l-37.458,20.146
		l-73.343,35.255l-57.604,32.422 M266.964,24.137L153.33,110.7 M396.966,66.317l39.347-22.979l32.107-22.034 M229.821,495.355
		l19.201,25.497 M69.286,370.39l29.589-17.942 M220.377,43.653l-37.773,30.218 M127.204,339.227l26.126-15.109 M330.863-119.085
		l39.032,60.752l24.238,36.514l42.18,65.158l16.368,26.126l21.09,31.792 M113.039,116.366l64.214-50.049l37.143-31.792
		l46.587-37.773l28.645-22.664l27.7-20.46 M308.514,83.944l-61.381,45.328l-21.405,14.794l-31.477,23.608l-28.33,19.831
		 M113.354,54.985l41.55,58.233l25.497,34.625l62.011,88.767 M560.964,143.437l-48.161-53.512l-2.833-3.463l-5.351-8.814
		 M186.697,156.972l34.31-25.812l41.865-29.589 M422.778,106.923l39.032-23.608l99.154-56.659 M385.005,570.901l-37.458-38.088
		l-47.531-49.734l-13.85-19.831l-22.034,10.073l-4.722,4.722l-2.518,1.574l-113.949,66.417 M-226.288,129.587l72.398-25.182
		l53.512-19.516l69.565-27.071l61.066-47.216l5.981-3.463 M214.082,119.514l-11.961-18.572l-24.867-34.625l-27.7-40.606
		L83.765-65.888L66.138-92.644l-18.257-23.293 M186.697-74.387L83.136,6.51l-34.31,28.645L23.014,54.356l-36.829,28.959
		l-33.366,23.293 M355.731,14.064L310.403,48.06l-4.722,3.777l-9.758,9.128l-44.068,30.848l-76.49,55.715l-25.182,19.201
		 M298.127,317.507l21.405,28.959 M479.122,193.801l76.176-56.974l5.666-3.777 M298.127,317.507l105.45-68.306l9.128-5.036
		l45.642-35.57l20.775-14.794 M53.232,95.276L23.014,54.356L6.331,28.859L-8.464,8.713l-16.998-24.552 M185.123,271.55
		l-37.773-50.994l-24.867-34.625 M202.75-52.353L99.819,28.544l-1.259,3.463L69.6,54.67 M141.369,307.12l134.094,193.587
		 M275.463,500.706l4.407,6.295l47.846,47.846 M22.699,422.327l26.126,20.775l21.405,19.201l52.253,52.253 M453.311,398.405
		l-0.315-2.518l-7.555-12.276 M215.656,302.713l31.477,45.957 M298.442,283.827l15.424,23.608 M541.763,275.642l-51.938,47.531
		l-4.407,5.351 M255.317,258.959l25.497-15.424l6.925,10.388 M144.202,345.837l16.054,24.552 M144.517,442.788l13.221,21.405
		 M451.422,479.302l-22.034-10.388l-9.443-15.739 M-106.988-259.16l19.831,29.904l16.998,20.46l2.833,5.036l32.107,45.957
		l13.535,18.572l18.886,28.645l16.054,21.405l54.456,75.231l49.105,65.788 M30.568,578.456l24.552-25.497l-64.844-64.844
		 M426.87,233.148l44.068,71.139 M212.823,463.248l-21.405-29.589l-24.238-36.514l-32.422-45.957l-19.201-28.959 M88.802,337.968
		l19.831,28.959l33.366,46.901l44.068,64.529 M16.403,417.921l6.295,4.407 M491.713,286.345l-45.642-67.991 M560.964,220.872
		l-11.017,10.702l-25.812,25.812 M262.243,269.347L375.561,202.3 M184.808,281.308l33.366,50.679l58.233,83.101l9.758,12.906
		 M126.889,454.12l80.582-51.623 M560.964,311.212L521.302,349.3l-57.604,56.659l-84.36,90.655 M433.48,275.957l68.621-50.049
		 M521.302,349.3l17.627,17.942l22.034-26.441 M209.36,405.015l45.642-20.46l30.533-14.794l6.925-5.351 M426.87,414.773
		l12.276,17.942 M48.825,443.103l17.313-34.31l12.906-24.238l55.715-33.366l26.756-15.109l42.809-25.497l33.681-23.923
		 M443.238,427.993l0.315,7.24l-26.756,64.844l-12.906,26.126 M359.508,459.156l22.349-15.424l66.418-42.809l5.036-2.518h1.574
		l1.574,0.63l7.24,6.925 M521.302,349.3l-11.961-11.017l-0.944-4.092 M508.711,171.767l41.236,59.807 M244.93,245.424l10.388,13.535
		l6.925,10.388l35.884,48.161 M389.412,225.278l-67.677,42.495l-40.291,27.385l-25.497,16.368 M560.964,100.942l-23.293,16.368
		l-20.46,15.739l-24.238,17.627 M367.377,486.856l-17.627,11.332 M524.135,257.385l-53.197,46.901l-11.332,11.961 M404.206,429.253
		l15.739,23.923 M473.142,433.974l31.163,14.48 M481.011,133.364l73.343-49.734l6.61-4.407 M66.138,408.792l27.071,37.458
		l44.698,59.492 M319.217,200.726l15.424,25.497l30.218,48.161 M501.157,224.334l5.351-4.092l22.034-19.516l25.497-20.46
		l6.925-5.666 M276.407,415.088l39.032-18.572 M458.347,208.595l22.034,33.051l23.293,33.366 M271.686,334.505l-36.514,21.405
		l-43.124,24.238l-79.009,53.197 M271.686,334.505l26.441-16.998 M355.731,461.989l-19.831,14.48l25.812,40.921 M560.964,189.079
		l-6.925-8.814l-20.46-27.071l-16.368-20.146l-11.961-16.368 M155.219,495.67l-42.18-62.325L69.286,370.39l-6.296-8.499
		l-5.666-5.351 M218.804,332.617l-56.345,36.199l-64.214,43.754 M400.743,473.951l-18.887-30.218 M400.743,473.951l16.053,26.126
		l19.831,10.073 M140.425,474.265l22.979-13.221l8.814-2.833l53.197-29.904l44.383-22.664 M261.928,100.628l40.291-28.645
		 M348.176,130.531l59.492-36.514 M436.628,337.968l-1.574-2.518 M456.459,319.396l1.889,1.574 M342.825,436.807l10.388-5.981
		 M353.212,430.826l3.777-2.833 M346.287,441.214l40.921-25.812 M338.733,404.385l-1.259,3.148l15.739,23.293 M25.532,314.36
		l5.666-3.148l30.533-21.719l46.587-30.533 M79.358,262.107l7.24,11.017l8.499,11.647 M130.352,228.426l15.739,21.405
		 M150.183,425.79l25.497-16.054 M481.955,388.017l23.293,25.497l6.296,6.296h4.407l1.889-1.259l3.463-5.351l4.407-9.128
		 M503.675,366.927l24.552,25.812l0.944,1.574v1.574l-1.889,5.666 M211.879,321.914l-42.495,25.812 M301.904,377.315l8.814-7.24
		l10.388,14.165l-8.814,7.24 M213.138,368.186l18.572,27.071 M189.215,430.197l26.441-16.054 M273.574,284.456l-2.833,1.574
		l-3.777-4.722l-12.591,7.869 M252.485,275.957l10.388,14.794 M482.9,356.54l9.128,9.128l-10.073,10.388l-9.128-9.443
		 M440.405,359.372l-22.979,1.259l-6.925,1.574l-67.677,41.236l-8.499,10.702 M439.146,341.745l-2.518-3.777 M458.347,320.97
		l16.054,15.109l1.574,3.777l0.63,4.722l-0.63,5.666l-3.777,6.295l-15.739,9.758 M460.236,322.859l-21.09,18.887 M456.459,366.298
		l-3.777-5.666 M356.99,427.993l99.469-61.696 M452.681,360.632l-13.535-18.887 M454.57,351.818l-1.259-0.944l-0.944-1.574
		l-0.63-2.518l1.259-3.777l5.351-2.518l3.777,0.63l3.463,1.889l0.944,1.889l0.63,3.148l-1.259,2.833l-1.259,1.574l-11.961,8.184
		 M439.146,341.745l-47.531,31.792l-51.308,29.274l-1.574,1.574 M565.371,300.195l23.293-22.664 M630.214,198.523l9.128,9.758
		 M520.673,698.07l20.46-34.625l14.794-27.7l15.424-30.533l43.124-73.657l33.681-54.771l36.829-51.308l21.719-28.33
		 M520.673,162.953l34.625-26.126l24.867-16.998l31.477-23.923l28.645-20.146 M804.285,485.912l-119.3-60.437 M574.814,43.024
		l2.833-5.981l20.46-11.961l1.259-5.666l-6.61-11.017l-14.48-11.961l-13.221-13.221l-9.443-7.869l-6.61-4.407 M578.591,46.486
		l-3.777-3.463 M605.977,241.017l-32.422-31.792 M541.763,275.642l-21.09,19.201 M577.962,89.296l15.109,20.775 M594.96,141.548
		l29.904-24.867 M627.067,51.523l-5.351-8.499l-4.407-4.092l-12.591-3.777l-23.923,14.165 M612.902,233.777l28.33-27.385
		 M640.287,75.76l7.555,12.276l2.203,4.407l3.463,12.906l0.63,7.24v11.332l-0.315,4.092l-1.889,4.092l-2.518,3.463l-99.469,96.006
		l-25.812,25.812 M569.148,303.657L521.302,349.3l-0.63,0.315 M521.302,349.3l17.627,17.942l42.809-51.938 M609.439,265.255
		l-13.535-14.165 M641.546,143.122l-29.904-47.216l-29.904-45.328l-3.148-4.092 M520.673,189.079l29.274,42.495 M597.793,75.131
		l-60.122,42.18l-16.998,12.906 M596.848,73.557l30.218-22.034 M520.673,106.608l33.681-22.979l33.681-23.608 M520.673,207.966
		l7.869-7.24l25.497-20.46l42.495-36.199 M543.022,67.576l37.143,52.253l16.368,24.238l17.942,25.182 M554.983,289.492
		l40.921-38.403l16.998-17.313l8.499,7.869l-0.315,2.518l-11.647,21.09l-11.332,22.034l-16.368,28.015 M575.444,207.021
		l-21.405-26.756l-20.46-27.071l-12.906-15.739 M578.906,267.143l19.201,20.146 M543.336,166.101l22.979-16.998 M520.673,49.949
		l72.083-41.55 M599.052,184.358l-22.349-23.608l-56.03-62.011 M524.135,27.915l19.201,33.366 M555.298,9.658l19.516,33.366
		 M578.277-3.563l-57.604,33.051 M520.673,322.544l34.31-33.051"/>
	
		<path id="road_trunk_primary" fill="none" stroke="#FFFFFF" stroke-width="6.4219" stroke-linecap="round" stroke-linejoin="round" d="
		M18.607,431.456l-20.46,41.236 M-6.89,466.711l19.201-38.717 M12.311,427.993l7.24-16.998l23.293-45.328l9.128-13.535
		l85.619-50.679 M141.369,307.12l-84.045,49.42 M57.324,356.54l-7.555,11.332l-24.238,47.531l-6.925,16.054 M431.906,132.735
		l-155.184,93.803l-57.289,33.996 M437.572,129.587l-5.666,3.148 M214.712,253.293l62.955-37.143 M137.592,301.454l77.12-48.161
		 M219.433,260.533l-78.064,46.587 M560.964,56.559l-115.208,67.677l-8.184,5.351 M277.667,216.15l40.291-24.552l53.827-31.792
		l24.238-14.165l32.737-17.942 M428.758,127.698l78.379-45.957l53.827-30.848 M51.973,352.133l5.351,4.407 M584.887,37.043
		L709.852-35.67 M712.056-31.578L587.09,41.45 M587.09,41.45l-66.417,38.717 M520.673,74.186l64.214-37.143"/>
	
		<path id="road_secondary_tertiary" fill="none" stroke="#FFFFFF" stroke-width="4.4145" stroke-linecap="round" stroke-linejoin="round" d="
		M379.339,496.614l34.94,55.086l9.128,11.647l16.683,16.368l8.184,6.61l8.814,5.981l8.814,5.036l95.062,46.272 M437.572,129.587
		l41.55,64.214 M524.135,257.385l8.814,10.073l8.814,8.184l19.201,19.516 M434.424,124.55l3.148,5.036 M479.122,193.801
		l22.034,30.533l22.979,33.051 M342.825,436.807l-30.533-45.328 M463.698,405.959l13.85,14.794l0.63,1.889l-0.315,1.574
		l-41.236,85.934l-18.257,39.976 M-26.721,264.94l2.518-6.925l13.85-23.608l23.293-16.054 M219.433,260.533l36.514,50.994
		l15.739,22.979 M292.461,364.409l-20.775-29.904 M-26.721,264.94l45.013,37.458l14.794,23.293l9.443,13.85l9.443,12.591
		 M-16.963,363.779l68.936-11.647 M214.712,253.293l4.722,7.24 M214.712,253.293l-25.497-33.051l-23.293-32.737l-15.739-20.775
		 M301.904,377.315l-9.443-12.906 M319.532,346.467l-21.719,13.85l-5.351,4.092 M312.292,391.48l-10.388-14.165 M217.859-30.004
		L85.969,77.334L55.75,93.702l-96.636,55.4l-32.737,12.276l-24.552,8.499l-30.848,8.184l-8.499,0.944l-12.276,0.315l-25.812-0.315
		l-37.773,0.63 M466.846,111.959l40.921,60.437 M33.716,248.887l-45.328,28.959 M359.193,317.193l-39.662,29.274 M275.463,500.706
		l-40.606,31.477l-12.276,8.814l-11.961,9.758l-40.606,30.218 M70.23,462.304l22.979-16.054l19.831-12.906 M150.183,166.73
		l-27.7,19.201l-42.809,31.477 M122.482,514.557l32.737-18.886 M230.765-210.055l12.591,16.054l12.276,24.238l35.57,67.362
		l15.424,28.015l59.807,93.803l23.293,35.255l16.054,25.812l28.645,44.068 M230.765-210.055l6.296,19.516l12.906,26.126
		l17.942,33.681l14.165,28.33l73.657,116.467l37.143,56.03l6.925,11.647l18.257,28.015l13.85,22.979 M351.009,448.454l-8.184-11.647
		 M79.673,217.409l-45.957,31.477 M150.183,166.73l-22.664-29.904l-41.55-59.492L52.917,31.692L36.234,7.139l-51.938-73.972
		 M374.932,502.595l-19.201-40.606l-4.722-13.535 M351.009,448.454l8.499,10.702l19.831,37.458 M391.3,365.353l-32.107-48.161
		 M351.009,448.454l-9.758,5.981l-65.788,46.272 M379.339,496.614l5.666,3.148l18.887,26.441l4.407,6.61l10.073,17.313l6.61,8.499
		l2.518,4.407l0.63,4.407l-0.944,2.833l-1.889,1.889l-1.889,0.944l-7.24,0.63l-2.833-1.259l-4.722-5.036l-6.61-9.758l-27.7-45.642
		l0.63-9.443 M366.433,19.416l9.128,24.867 M361.397,22.249l18.572,17.942 M396.966,66.317l15.424,35.255 M392.874,70.094
		l24.238,27.7 M598.737,326.636l101.987,65.788 M569.148,303.657l12.591,11.647l16.998,11.332 M524.135,257.385l8.814,10.073
		l8.814,8.184l27.385,28.015 M700.724,392.424l5.981,4.722l18.572,11.017l4.092,1.259l11.961,0.315l136.927-10.073l119.3-7.869
		l54.141-4.722l67.991-5.036l68.936-4.407l85.933-6.925l70.195-4.407l52.567-4.722l22.979-1.259l92.229-7.24l141.334-10.073
		 M648.157,476.784l131.891,64.529 M640.287,75.76l-13.221-24.238"/>
	
		<path id="road_major_motorway" fill="none" stroke="#FFFFFF" stroke-width="8.0577" stroke-linecap="round" stroke-linejoin="round" d="
		M160.885,497.873l61.381-35.884l29.904-13.221l8.184-2.518l14.165-3.463l14.794-2.833l6.61-0.63l13.535,0.315l6.296,0.944
		l9.758,3.148 M422.148,372.593l-36.199,20.46l-5.981,3.777l-4.722,3.777l-4.407,3.777l-3.777,4.407l-3.463,5.036l-4.407,10.073
		 M379.339,507.632l-19.516-26.126l-5.981-6.925l-11.332-9.758l-8.814-5.666l-5.666-2.833l-11.017-3.463l-14.794-1.574
		 M345.658,429.882l1.574-10.702l0.944-3.463l3.463-8.184l5.666-9.443l10.073-9.758l12.906-8.814l61.381-37.458l13.221-8.814
		 M165.607,506.058l89.396-51.623l12.276-6.296l11.961-3.777l11.332-2.518l6.296-0.63l12.276-0.315l6.296,0.63l10.073,2.203
		 M379.339,507.632l-29.274-54.771l-3.148-10.388l-1.259-12.591 M163.088,501.966l72.083-41.55l53.826-27.7l60.122-31.792
		l80.897-46.587l16.683-10.388l16.054-11.332l16.368-13.85l64.844-58.863l16.998-16.054 M560.964-28.115l-5.351-5.036
		l-11.647-11.332l-11.961-12.591L520.673-70.61l-19.831-26.126l-31.477-45.013l-5.666-10.702l-2.518-6.296l-1.574-7.24
		l-1.889-13.221l0.315-7.24 M465.587,337.968l-16.683,12.276l-11.017,6.925l-172.182,97.265 M525.394-73.128l10.702,13.221
		l22.664,23.293l2.203,1.889 M560.964,251.09l-13.535,13.221l-59.492,54.141l-22.349,19.516 M305.052,424.216l39.032-25.812
		 M336.844,422.013l-16.368,6.295l-16.054,4.407 M359.193,423.901l-1.259,4.722l-0.63,15.739l2.518,11.961l5.666,13.221
		l34.94,59.178l8.184,16.368 M325.512,443.732l9.758,4.407l10.388,7.555l4.092,3.777l9.128,10.388l10.073,13.85l39.662,61.381
		 M465.587,337.968l-12.276,12.276l-7.555,6.61l-23.608,15.739 M454.885,333.246l22.034-16.683l24.552-20.146l7.869-5.036
		 M78.099,520.222l15.109,4.722l14.48,1.259l5.981-0.63l11.017-2.833l5.666-2.203l32.737-18.572 M265.705,454.435l-74.916,45.013
		 M190.789,499.447l-46.587,26.126l-14.165,6.295l-16.998,4.407l-6.295,0.63l-7.555-0.315l-13.535-2.203l-8.814-2.833l-6.296-2.833
		l-6.61-3.463l-9.758-7.24l-15.424-14.48l-43.124-48.475 M-47.811,345.208l9.758,38.088l3.463,9.758l7.24,17.627l4.407,8.184
		l12.276,16.683l14.48,16.054 M3.812,451.602l28.33,30.848l23.293,23.923l7.24,5.666l7.555,4.407l7.869,3.777 M344.084,398.405
		l76.805-49.105 M424.981,381.092l-44.068,27.7l-6.61,3.148l-5.666,1.889l-31.792,8.184 M78.099,520.222l15.739,3.463l6.61,0.63
		h5.981l11.332-1.889l10.702-4.722l32.422-19.831 M302.219,451.287l-11.647,0.944l-15.109,4.407l-9.758,3.777l-74.916,39.032
		 M-121.153,253.608l4.092-1.889l4.407-1.259l4.722-0.63h9.128l3.463,0.315l3.148,0.944l9.128,3.463l5.351,3.463l5.351,4.092
		l8.184,10.073l3.148,5.666l6.295,15.424l4.092,14.48l11.647,52.882l5.036,20.775l2.833,10.388l3.148,8.814l3.777,8.499l4.407,8.184
		l10.702,16.683l12.906,17.627 M452.996,331.672l81.527-70.195l26.441-24.552 M420.889,349.3l5.351-2.518l7.24-2.203
		 M366.433,425.16l-8.184,8.814l-3.463,5.351l-0.944,5.981l0.315,2.518l3.463,10.702l1.574,3.777l52.567,80.268l13.85,18.257
		l5.351,6.296l5.666,5.666l11.332,9.443l16.368,10.388l18.887,10.073 M401.058,550.756l-14.165-21.405l-24.238-47.216l-8.184-10.388
		l-7.24-6.61l-10.702-6.296l-11.961-2.833l-11.961-0.944 M305.996,454.435l-10.073-0.315l-20.146,1.259l-8.499,1.889l-8.184,2.518
		l-19.516,8.814l-85.619,50.049 M394.133,410.996l-9.443,5.036l-5.666,0.944 M289.628,435.863l10.073-6.61 M452.996,331.672
		l13.85-9.128 M450.478,371.019l-13.221,4.407l-6.296,2.518l-5.981,3.148 M299.701,429.253l5.351-4.092l51.938-32.107l76.49-48.475
		l19.516-12.906l5.036-1.574h5.981l4.722,1.889l1.889,1.259l4.092,5.351l1.259,5.981l-0.944,6.61l-0.944,2.203l-4.722,5.036
		l-15.424,10.388l-127.169,81.527l-6.925,3.148l-7.24,1.574l-6.61-0.63l-5.351-1.889l-3.463-2.833l-1.889-3.148l-0.63-3.463v-3.777
		l0.944-4.722l1.889-3.148L299.701,429.253 M560.964,257.385l-9.128,8.814l-9.758,8.814l-30.533,24.867l-21.405,19.516l-4.092,5.666
		l-5.981,13.85l-4.407,8.184 M445.756,336.394l5.036-6.925l2.203-5.351v-3.463l-0.63-3.148l-1.259-3.148l-4.407-6.925
		 M466.846,322.544l66.103-55.086 M153.016,516.445l79.638-46.272l56.974-34.31 M449.219,376.37l-55.086,34.625 M446.701,307.435
		l-51.938-81.527 M485.418,328.525l-1.889,3.777l-1.889,5.981l-2.833,14.48l-0.944,2.203l-1.889,2.203l-13.221,11.647l-13.535,7.555
		 M394.763,225.908l-25.812-41.236l-9.128-8.499 M525.394-73.128l10.702,13.221l22.664,23.293l25.182,22.979l14.48,12.276
		l11.017,11.332l9.128,11.017l9.128,12.906l8.814,14.165l16.368,29.274l5.666,13.221l3.463,14.48l0.944,8.499l-0.63,16.683
		l-1.574,8.184l-5.666,14.794l-3.148,6.296l-9.128,12.906l-6.295,6.925l-89.081,84.989l-26.756,24.238 M520.673,281.308
		l23.293-21.405l66.103-62.955l25.812-26.126l9.758-13.535l3.777-6.61l2.833-6.295l2.203-7.24l2.518-15.109v-7.869l-0.63-7.24
		l-3.463-13.85l-2.518-6.925l-2.833-6.296l-15.424-28.959l-13.221-20.775l-4.407-6.295l-4.722-5.351L594.645,2.733L581.424-9.858
		l-25.812-23.293l-11.647-11.332l-11.961-12.591L520.673-70.61 M605.032,195.375l33.366-30.218l7.24-7.869 M651.934,159.49
		l-8.499,16.368l-5.981,7.869l-20.146,19.831 M617.309,203.559l-65.473,62.64l-9.758,8.814l-21.405,17.313 M520.673,273.439
		l13.85-11.961l70.51-66.103"/>
	<path id="bridge_major" fill="none" stroke="#FFFFFF" stroke-width="6.4219" stroke-linecap="round" stroke-linejoin="round" d="
		M18.607,431.456l-20.46,41.236 M-6.89,466.711l19.201-38.717 M379.339,496.614l34.94,55.086l9.128,11.647l16.683,16.368l8.184,6.61
		l8.814,5.981l8.814,5.036l95.062,46.272 M584.887,37.043L709.852-35.67 M712.056-31.578L587.09,41.45 M598.737,326.636
		l101.987,65.788"/>
	<path id="m0" fill="none" stroke="#888888" stroke-width="2" stroke-linecap="round" stroke-linejoin="round" d="M467.161,108.812
		l6.925-5.036l-23.293-35.884l-42.18,25.182l-61.066,35.255l-3.777-4.407l-93.173,56.03l-88.137,60.437l23.923,32.737l-5.666,2.518
		l102.617,149.203l39.662,39.662l15.109,10.073l114.578-77.435l11.961,3.777l55.4-52.253l-6.295-8.814l-8.814-5.036l77.435-71.139
		l-19.516-16.368L467.161,108.812"/>
</g>
<g id="insetmap">
	<path fill="#050505" d="M133.534,288.841l0.883-0.355l0.604,0.872l-0.718,0.432L133.534,288.841z M132.974,286.835l-0.201,1.221
		l-0.311-1.932L132.974,286.835z M126.716,328.589l-0.626-0.937l0.685-4.06l-0.466-1.618l-1.757-2.186l0.106-3.235l0.241-0.683
		l1.763-0.884l2.31-2.421l0.394-1.022l-0.744-2.587l0.66-0.436l2.647,1.353l2.448,0.175l1.172-0.208l0.557-0.86l0.02-3.851
		l1.758-3.975l-0.025-2.564l0.644-2.333l0.057-2.465l-1.67-4.584l0.544-2.535l1.894-1.21l7.542,8.429l6.853,5.211l2.586,0.165
		l3.012,1.372l1.759,0.123l1.197-0.671l3.419-3.834l-1.412,4.93l0.262,2.152l1.816,3.635l1.193,0.156l1.319-1.288l1.169-0.099
		l-2.31,2.469l-1.174,0.095l-5.273,2.767l-3.387-0.018l-1.706,1.043l-2.765,3.142l-1.067,2.022l-1.189,4.432l-5.874-2.434
		l-5.177-3.092l-3.469,0.474l-3.159,2.235l-2.198-2.146l-1.787-0.036l-0.985,1.385l-0.133,1.452l1.584,1.668l1.631,0.126
		l3.365,3.155l-1.181,0.727l-2.691-0.694l-2.918,3.781L126.716,328.589z M121.325,321.036l1.099-0.785l-0.404,1.459l-0.511,0.179
		L121.325,321.036z M78.074,403.146l-0.002,0.055l1.69,0.734l1.243-0.049l-0.066,1.908l0.218,2.018l0.565,0.308l-3.246,2.183
		l-1.778,3.685l-1.938-2.202l-2.855-0.802l-3.056,1.49l-3.985,6.179l-2.029-0.21l0.658-1.419l-1.827-0.299l-0.494-1.579l0.809-2.37
		l-0.845-0.436l0.156-1.052l-3.42,0.755l5.488-3.331l1.413-3.087l1.396-1.072l1.626,1.906l2.985-0.329l1.385-0.987l-0.109-1.821
		l4.146-1.055L78.074,403.146z M122.044,398.563l0.474-0.006l0.204,1.04l-0.476-0.088L122.044,398.563z M82.805,401.376l1.45-0.712
		l-0.904,1.492l0.249,1.152l-0.981,0.825l-1.226-0.425L82.805,401.376z M137.85,336.882l2.854,3.317l1.719,5.145l0.074,3.822
		l-0.486,3.328l-1.911,1.51l-0.812,2.278l-0.491,3.808l-2.96,0.734l-1.114,2.029l-0.209,2.097l0.977,5.083l-0.162,3.678
		l-2.094,4.121l-1.252,5.23l0.514,1.85l2.243,3.396l-2.04,0.807l-1.463,1.539l-0.859,3.502l-2.515,1.565l-1.107,1.44l-1.05-0.548
		l0.126-3.587l2.292-3.052l-1.61-0.812l-1.021,0.581l-0.167,1.223l-1.018,0.957l0.873,1.585l-0.547,1.14l-1.814-1.574l-1.881,0.213
		l-0.745,0.762l-0.621,3.879l-1.591,2.289l-1.239-0.749l0.359-2.937l0.847-0.479l-1.518-1.027l-1.225,0.384l-3.395,5.12
		l-5.505-0.678l-4.185,0.819l1.911-1.31l-0.089-0.664l-2.085-0.021l-0.561-0.669l-0.203,1.134l-0.663-0.103l0.324-3.212
		l-0.849-0.106l-0.954,0.648l-1.374,3.197l2.909,2.607l-0.205,1.139l-4.601,1.452l-3.769,6.433l-1.941,0.722l-2.099-0.728
		l-2.646-4.872l-0.198-2.966l1.848-1.277l1.008-2.062l-3.221-0.287l-2.608-1.511l-3.806,0.331l-0.001,0.032l-0.476,0.044
		l-2.452,1.892l-4.601,0.739l-2.636,1.297l-1.032-0.341l-3.185,0.683l-2.028-1.264l-0.967,0.228l-1.728,4.968l-0.472-0.126
		l-2.924-2.3l-4.456,0.746l-1.383-0.773l-1.266,0.289l0.051-3.349l0.923-0.886l3.055-0.064l8.252-5.823l3.905-3.924l2.025-0.922
		l2.929-0.315l0.887,1.079l5.18-0.228l2.746-0.559l-0.001,0.016l7.557-1.607l0.74,0.304l-0.32,1.303l0.822,0.776l2.998,0.27
		l0.19-0.089l0.001-0.049l3.432-2.496l-0.698-2.352l0.496-1.388l5.498-6.397l0.163-4.79l1.128-1.911l3.953-1.422l0.176,0.825
		l-3.706,3.357l0.817,0.93l0.161,2.03l1.839,0.85l0.833-0.178l1.49-1.835l5.897-2.286l2.746-2.394l2.802-4.678l2.985-1.76
		l1.252-1.469l0.849-3.813l2.274-4l1.988-7.811l-0.585-2.472l-2.048-0.581l1.306-1.085l0.741-2.572l-0.428-1.925l0.036-0.001
		l-0.383-1.571l0.846-1.417l1.98-1.267l0.342-3.75l2.259,0.028l1.068,3.8l1.447-1.177l1.501,0.563l0.832-1.161l0.007-2.261
		l-0.362-0.422l-3.087,1.226l0.58-3.657l1.299,0.046l1.775,1.239l1.452-0.571l0.007,7.135L137.85,336.882z M112.325,363.939
		l2.078-2.453l-0.443,2.54l0.999,0.087l-0.629,1.73l-2.001,0.825l0.543-1.548l-0.637-0.272L112.325,363.939z M69.488,382.25
		l0.985-1.067l0.692,1.059l-0.506,0.814L69.488,382.25z M78.835,400.66l-0.69,0.639l-0.395,0.365l-0.533-0.973L78.835,400.66z
		 M37.934,405.422l0.668,0.059l-0.581,1.202l-0.445-0.425L37.934,405.422z M35.392,410.41l0.983-0.202l-1.892,1.768L35.392,410.41z
		 M31.011,413.984l1.125-1.741l0.265,1.385l-1.021,1.656L31.011,413.984z M41.577,420.378l1.043-0.892l0.865,0.167l-0.751,0.916
		L41.577,420.378z M39.512,419.328l1.371-0.081l0.134,2.063l-1.87,1.411l-0.35-0.519L39.512,419.328z M42.076,412.634l-1.118,0.683
		l0.278,2.646l1.351,0.111l-0.021,1.556l-0.893,0.22l-1.568-1.104l-2.677,1.819l0.609-1.508l-1.024-1.745l0.063-1.939l1.102,1.943
		l1.416,0.51l-0.728-1.812l-2.501-2.548l0.281-1.041l2.094,0.377l-0.089-1.266l4.851-1.621l1.212-2.021l2.075-0.798l2.057,0.733
		L49.558,408l1.006,0.748l1.603,0.5l1.973-0.73l0.927,0.544l0.125,1.068l-1.691,2.299l3.163,0.404l-0.57,1.414l0.821,0.828
		l-0.336,0.754l0.834,0.635l-3.391,4.545l-3.542,10.94l-2.43-0.568l-0.334,0.568l0.504,1.32l-3.918,2.281l1.171-2.583l-0.558-3.299
		l0.853-0.92l-1.14-0.579l-1.373,2.652l0.94,2.048l-0.66,0.938l-3.355-1.454l-0.394-1.317l1.403-0.281l0.313-1.553l-1.041-1.857
		l0.358-3.409l1.855-1.221l2.443-4.008l-1.23-0.486l0.735-0.721l-0.115-1.079l-1.243-2.819L42.076,412.634z M62.063,404.415
		l0.715-0.819l0.037,1.055L62.063,404.415z M59.735,406.574l-0.062-0.579l2.096,0.223l-0.713,0.725L59.735,406.574z M27.715,417.078
		l0.152-1.645l1.516,0.441l0.378,1.208l-1.317,0.556L27.715,417.078z M36.119,427.472l0.837-0.617l-1.095,1.383L36.119,427.472z
		 M45.526,442.303l0.047-0.694l1.831-3.545l-1.07,4.099L45.526,442.303z M41.164,441.868l1.049-0.715l1.511,1.213l-0.474,1.061
		l-1.108,0.114L41.164,441.868z M35.415,396.948l1.113-0.757l0.056,1.532l-1.163,2.381l-0.535-0.433L35.415,396.948z
		 M33.883,402.361l0.221-2.474l1.112,0.391L33.883,402.361z M125.847,416.298l-0.008-0.483l0.877,0.371l-0.475,0.492
		L125.847,416.298z"/>
	<circle fill="#DD0000" cx="126.511" cy="387.548" r="4.695"/>
</g>
<g id="marker">
</g>
<g id="markerText">
</g>
<g id="furniture">
	<rect x="10" y="475" fill="#FFFFFF" fill-opacity="0.75" width="64.953" height="14"/>
	<path fill="none" stroke="#333333" stroke-width="2" d="M10,490h64.953"/>
	<text transform="matrix(1 0 0 1 15 486)" fill="#333333" font-family="'ArialMT'" font-size="10px">100 m</text>
	<g>
		<path stroke="#000000" d="M89.234,480.203L89.234,480.203l3.2,11.8l-3.2-2l-3.2,2C86.034,492.003,89.234,480.203,89.234,480.203z"
			/>
		<text transform="matrix(1 0 0 1 84.9014 475.0031)" font-family="'ArialMT'" font-size="12px">N</text>
	</g>
	<rect x="543.031" y="486" fill="#FFFFFF" fill-opacity="0.73" width="156.969" height="14"/>
	<text transform="matrix(1 0 0 1 547.0312 498)" font-family="'ArialMT'" font-size="11px">©</text>
	<text transform="matrix(1 0 0 1 555.1362 498)" font-family="'ArialMT'" font-size="11px"> </text>
	<text transform="matrix(1 0 0 1 558.1924 498)" font-family="'ArialMT'" font-size="11px">​</text>
	<text transform="matrix(1 0 0 1 558.1924 498)" font-family="'ArialMT'" font-size="11px">OpenStreetMap</text>
	<text transform="matrix(1 0 0 1 635.8477 498)" font-family="'ArialMT'" font-size="11px">​</text>
	<text transform="matrix(1 0 0 1 635.8477 498)" font-family="'ArialMT'" font-size="11px"> </text>
	<text transform="matrix(1 0 0 1 638.9038 498)" font-family="'ArialMT'" font-size="11px">c</text>
	<text transform="matrix(1 0 0 1 644.4038 498)" font-family="'ArialMT'" font-size="11px">o</text>
	<text transform="matrix(1 0 0 1 650.5215 498)" font-family="'ArialMT'" font-size="11px">n</text>
	<text transform="matrix(1 0 0 1 656.6392 498)" font-family="'ArialMT'" font-size="11px">t</text>
	<text transform="matrix(1 0 0 1 659.6953 498)" font-family="'ArialMT'" font-size="11px">r</text>
	<text transform="matrix(1 0 0 1 663.3584 498)" font-family="'ArialMT'" font-size="11px">i</text>
	<text transform="matrix(1 0 0 1 665.8022 498)" font-family="'ArialMT'" font-size="11px">b</text>
	<text transform="matrix(1 0 0 1 671.9199 498)" font-family="'ArialMT'" font-size="11px">u</text>
	<text transform="matrix(1 0 0 1 678.0376 498)" font-family="'ArialMT'" font-size="11px">t</text>
	<text transform="matrix(1 0 0 1 681.0938 498)" font-family="'ArialMT'" font-size="11px">o</text>
	<text transform="matrix(1 0 0 1 687.2114 498)" font-family="'ArialMT'" font-size="11px">r</text>
	<text transform="matrix(1 0 0 1 690.8745 498)" font-family="'ArialMT'" font-size="11px">s</text>
</g>
<g id="legend">
	<path id="convenience_x5F_store_00000080922125735761614200000011836620045164187532_" fill="#FA8C00" d="M31.35,99.96
		c0-0.533,0.2-1,0.6-1.4c0.4-0.4,0.867-0.6,1.4-0.6c0.56,0,1.033,0.2,1.42,0.6s0.58,0.867,0.58,1.4c0,0.56-0.193,1.033-0.58,1.42
		s-0.86,0.58-1.42,0.58c-0.533,0-1-0.193-1.4-0.58C31.55,100.994,31.35,100.52,31.35,99.96z M41.35,99.96c0-0.533,0.2-1,0.6-1.4
		c0.4-0.4,0.867-0.6,1.4-0.6c0.56,0,1.033,0.2,1.42,0.6s0.58,0.867,0.58,1.4c0,0.56-0.193,1.033-0.58,1.42s-0.86,0.58-1.42,0.58
		c-0.533,0-1-0.193-1.4-0.58C41.55,100.994,41.35,100.52,41.35,99.96z M34.91,95.24c-0.48,0.133-0.707,0.287-0.68,0.46
		c0.027,0.173,0.32,0.26,0.88,0.26h11.24v1.52c0,0.267-0.133,0.4-0.4,0.4H32.87c-0.267,0-0.4-0.133-0.4-0.4v-1.52l-0.2-0.92
		l-1.96-9.08h-1.96v-1.6c0-0.267,0.133-0.4,0.4-0.4h3.12c0.267,0,0.4,0.133,0.4,0.4v1.72h14.08v5.48c0,0.293-0.12,0.467-0.36,0.52
		L34.91,95.24z"/>
	<path id="vm_00000012448914763801071480000006569385693087275944_" fill="#EE493A" d="M47.915,46.3
		c0.004,1.353-0.279,2.691-0.832,3.926c-1.456,3.25-8.45,12.636-8.45,12.636s-6.968-9.386-8.45-12.636
		c-0.553-1.235-0.836-2.573-0.832-3.926c-0.043-5.169,4.112-9.395,9.281-9.438c0,0,0,0,0.001,0
		C43.802,36.905,47.958,41.13,47.915,46.3C47.915,46.3,47.915,46.3,47.915,46.3z"/>
	<rect x="65.224" y="86.501" fill="none" width="345.562" height="48.218"/>
	<text transform="matrix(1 0 0 1 65.2238 100.821)" font-family="'ArialMT'" font-size="20px">convenience store </text>
	<text transform="matrix(1 0 0 1 65.2238 124.821)" font-family="'ArialMT'" font-size="20px">and 24/7 supermarket</text>
	<rect x="65.224" y="39.403" fill="none" width="345.562" height="23.724"/>
	<text transform="matrix(1 0 0 1 65.2238 53.7226)" font-family="'ArialMT'" font-size="20px">vending machine</text>
</g>
<g id="interactions:svg">
	<g id="subway_00000147913234270003837840000015283094996708877202_">
		<text id="subway_x5F_text" transform="matrix(1 0 0 1 307.1045 423)" font-family="'ArialMT'" font-size="14px">Subway</text>
		<path id="subway" fill="#333333" d="M335.563,384c1.373,0,2.553,0.347,3.54,1.04s1.473,1.54,1.46,2.54v10
			c0,0.96-0.467,1.78-1.4,2.46c-0.933,0.68-2.067,1.047-3.4,1.1l2.38,2.24c0.107,0.12,0.133,0.253,0.08,0.4
			c-0.053,0.147-0.167,0.22-0.34,0.22h-11.78c-0.16,0-0.273-0.073-0.34-0.22c-0.067-0.147-0.033-0.28,0.1-0.4l2.38-2.24
			c-1.347-0.04-2.487-0.407-3.42-1.1s-1.4-1.513-1.4-2.46v-10c0-1,0.487-1.847,1.46-2.54s2.153-1.04,3.54-1.04H335.563z
			 M326.643,398.64c0.493,0,0.913-0.173,1.26-0.52c0.347-0.347,0.52-0.767,0.52-1.26c0-0.493-0.173-0.913-0.52-1.26
			c-0.347-0.347-0.767-0.52-1.26-0.52c-0.493,0-0.913,0.173-1.26,0.52c-0.347,0.347-0.527,0.767-0.54,1.26
			c-0.013,0.493,0.167,0.913,0.54,1.26C325.757,398.467,326.177,398.64,326.643,398.64z M331.283,392.58v-5.72h-6.08v5.72H331.283z
			 M337.343,398.64c0.493,0,0.92-0.173,1.28-0.52c0.36-0.347,0.533-0.767,0.52-1.26c-0.013-0.493-0.187-0.913-0.52-1.26
			c-0.333-0.347-0.76-0.52-1.28-0.52c-0.52,0-0.94,0.173-1.26,0.52c-0.32,0.347-0.493,0.767-0.52,1.26
			c-0.027,0.493,0.147,0.913,0.52,1.26C336.457,398.467,336.877,398.64,337.343,398.64z M339.143,392.58v-5.72h-6.44v5.72H339.143z"
			/>
	</g>
	<g id="store">
		<path id="convenience_x5F_store_00000153665927990767407290000010324093705746821563_" fill="#FA8C00" d="M498,337
			c0-0.533,0.2-1,0.6-1.4s0.867-0.6,1.4-0.6c0.56,0,1.033,0.2,1.42,0.6c0.387,0.4,0.58,0.867,0.58,1.4c0,0.56-0.193,1.033-0.58,1.42
			c-0.387,0.387-0.86,0.58-1.42,0.58c-0.533,0-1-0.193-1.4-0.58C498.2,338.033,498,337.56,498,337z M508,337c0-0.533,0.2-1,0.6-1.4
			s0.867-0.6,1.4-0.6c0.56,0,1.033,0.2,1.42,0.6c0.387,0.4,0.58,0.867,0.58,1.4c0,0.56-0.193,1.033-0.58,1.42
			c-0.387,0.387-0.86,0.58-1.42,0.58c-0.533,0-1-0.193-1.4-0.58C508.2,338.033,508,337.56,508,337z M501.56,332.28
			c-0.48,0.133-0.707,0.287-0.68,0.46c0.027,0.173,0.32,0.26,0.88,0.26H513v1.52c0,0.267-0.133,0.4-0.4,0.4h-13.08
			c-0.267,0-0.4-0.133-0.4-0.4V333l-0.2-0.92l-1.96-9.08H495v-1.6c0-0.267,0.133-0.4,0.4-0.4h3.12c0.267,0,0.4,0.133,0.4,0.4v1.72
			H513v5.48c0,0.293-0.12,0.467-0.36,0.52L501.56,332.28z"/>
		<path id="convenience_x5F_store_00000017477454614252111450000007228008292233733003_" fill="#FA8C00" d="M235,311
			c0-0.533,0.2-1,0.6-1.4c0.4-0.4,0.867-0.6,1.4-0.6c0.56,0,1.033,0.2,1.42,0.6c0.387,0.4,0.58,0.867,0.58,1.4
			c0,0.56-0.193,1.033-0.58,1.42c-0.387,0.387-0.86,0.58-1.42,0.58c-0.533,0-1-0.193-1.4-0.58C235.2,312.033,235,311.56,235,311z
			 M245,311c0-0.533,0.2-1,0.6-1.4c0.4-0.4,0.867-0.6,1.4-0.6c0.56,0,1.033,0.2,1.42,0.6c0.387,0.4,0.58,0.867,0.58,1.4
			c0,0.56-0.193,1.033-0.58,1.42c-0.387,0.387-0.86,0.58-1.42,0.58c-0.533,0-1-0.193-1.4-0.58C245.2,312.033,245,311.56,245,311z
			 M238.56,306.28c-0.48,0.133-0.707,0.287-0.68,0.46c0.027,0.173,0.32,0.26,0.88,0.26H250v1.52c0,0.267-0.133,0.4-0.4,0.4h-13.08
			c-0.267,0-0.4-0.133-0.4-0.4V307l-0.2-0.92l-1.96-9.08H232v-1.6c0-0.267,0.133-0.4,0.4-0.4h3.12c0.267,0,0.4,0.133,0.4,0.4v1.72
			H250v5.48c0,0.293-0.12,0.467-0.36,0.52L238.56,306.28z"/>
		<path id="convenience_x5F_store_00000008148790626217668110000009446555718929539755_" fill="#FA8C00" d="M216,246
			c0-0.533,0.2-1,0.6-1.4c0.4-0.4,0.867-0.6,1.4-0.6c0.56,0,1.033,0.2,1.42,0.6c0.387,0.4,0.58,0.867,0.58,1.4
			c0,0.56-0.193,1.033-0.58,1.42c-0.387,0.387-0.86,0.58-1.42,0.58c-0.533,0-1-0.193-1.4-0.58C216.2,247.033,216,246.56,216,246z
			 M226,246c0-0.533,0.2-1,0.6-1.4c0.4-0.4,0.867-0.6,1.4-0.6c0.56,0,1.033,0.2,1.42,0.6c0.387,0.4,0.58,0.867,0.58,1.4
			c0,0.56-0.193,1.033-0.58,1.42c-0.387,0.387-0.86,0.58-1.42,0.58c-0.533,0-1-0.193-1.4-0.58C226.2,247.033,226,246.56,226,246z
			 M219.56,241.28c-0.48,0.133-0.707,0.287-0.68,0.46c0.027,0.173,0.32,0.26,0.88,0.26H231v1.52c0,0.267-0.133,0.4-0.4,0.4h-13.08
			c-0.267,0-0.4-0.133-0.4-0.4V242l-0.2-0.92l-1.96-9.08H213v-1.6c0-0.267,0.133-0.4,0.4-0.4h3.12c0.267,0,0.4,0.133,0.4,0.4v1.72
			H231v5.48c0,0.293-0.12,0.467-0.36,0.52L219.56,241.28z"/>
		<path id="convenience_x5F_store_00000158740387167358629480000008199858421762583443_" fill="#FA8C00" d="M296,397
			c0-0.533,0.2-1,0.6-1.4s0.867-0.6,1.4-0.6c0.56,0,1.033,0.2,1.42,0.6c0.387,0.4,0.58,0.867,0.58,1.4c0,0.56-0.193,1.033-0.58,1.42
			c-0.387,0.387-0.86,0.58-1.42,0.58c-0.533,0-1-0.193-1.4-0.58C296.2,398.033,296,397.56,296,397z M306,397c0-0.533,0.2-1,0.6-1.4
			s0.867-0.6,1.4-0.6c0.56,0,1.033,0.2,1.42,0.6c0.387,0.4,0.58,0.867,0.58,1.4c0,0.56-0.193,1.033-0.58,1.42
			c-0.387,0.387-0.86,0.58-1.42,0.58c-0.533,0-1-0.193-1.4-0.58C306.2,398.033,306,397.56,306,397z M299.56,392.28
			c-0.48,0.133-0.707,0.287-0.68,0.46c0.027,0.173,0.32,0.26,0.88,0.26H311v1.52c0,0.267-0.133,0.4-0.4,0.4h-13.08
			c-0.267,0-0.4-0.133-0.4-0.4V393l-0.2-0.92l-1.96-9.08H293v-1.6c0-0.267,0.133-0.4,0.4-0.4h3.12c0.267,0,0.4,0.133,0.4,0.4v1.72
			H311v5.48c0,0.293-0.12,0.467-0.36,0.52L299.56,392.28z"/>
		<path id="convenience_x5F_store_00000151517761320716284050000009267031226632695690_" fill="#FA8C00" d="M339,205
			c0-0.533,0.2-1,0.6-1.4c0.4-0.4,0.867-0.6,1.4-0.6c0.56,0,1.033,0.2,1.42,0.6c0.387,0.4,0.58,0.867,0.58,1.4
			c0,0.56-0.193,1.033-0.58,1.42c-0.387,0.387-0.86,0.58-1.42,0.58c-0.533,0-1-0.193-1.4-0.58C339.2,206.033,339,205.56,339,205z
			 M349,205c0-0.533,0.2-1,0.6-1.4c0.4-0.4,0.867-0.6,1.4-0.6c0.56,0,1.033,0.2,1.42,0.6c0.387,0.4,0.58,0.867,0.58,1.4
			c0,0.56-0.193,1.033-0.58,1.42c-0.387,0.387-0.86,0.58-1.42,0.58c-0.533,0-1-0.193-1.4-0.58C349.2,206.033,349,205.56,349,205z
			 M342.56,200.28c-0.48,0.133-0.707,0.287-0.68,0.46c0.027,0.173,0.32,0.26,0.88,0.26H354v1.52c0,0.267-0.133,0.4-0.4,0.4h-13.08
			c-0.267,0-0.4-0.133-0.4-0.4V201l-0.2-0.92l-1.96-9.08H336v-1.6c0-0.267,0.133-0.4,0.4-0.4h3.12c0.267,0,0.4,0.133,0.4,0.4v1.72
			H354v5.48c0,0.293-0.12,0.467-0.36,0.52L342.56,200.28z"/>
		<path id="convenience_x5F_store_00000062165853009794084780000011892721518489490599_" fill="#FA8C00" d="M444,134
			c0-0.533,0.2-1,0.6-1.4c0.4-0.4,0.867-0.6,1.4-0.6c0.56,0,1.033,0.2,1.42,0.6c0.387,0.4,0.58,0.867,0.58,1.4
			c0,0.56-0.193,1.033-0.58,1.42c-0.387,0.387-0.86,0.58-1.42,0.58c-0.533,0-1-0.193-1.4-0.58C444.2,135.033,444,134.56,444,134z
			 M454,134c0-0.533,0.2-1,0.6-1.4c0.4-0.4,0.867-0.6,1.4-0.6c0.56,0,1.033,0.2,1.42,0.6c0.387,0.4,0.58,0.867,0.58,1.4
			c0,0.56-0.193,1.033-0.58,1.42c-0.387,0.387-0.86,0.58-1.42,0.58c-0.533,0-1-0.193-1.4-0.58C454.2,135.033,454,134.56,454,134z
			 M447.56,129.28c-0.48,0.133-0.707,0.287-0.68,0.46c0.027,0.173,0.32,0.26,0.88,0.26H459v1.52c0,0.267-0.133,0.4-0.4,0.4h-13.08
			c-0.267,0-0.4-0.133-0.4-0.4V130l-0.2-0.92l-1.96-9.08H441v-1.6c0-0.267,0.133-0.4,0.4-0.4h3.12c0.267,0,0.4,0.133,0.4,0.4v1.72
			H459v5.48c0,0.293-0.12,0.467-0.36,0.52L447.56,129.28z"/>
		<path id="convenience_x5F_store_00000165220431555309683680000016321226046569377204_" fill="#FA8C00" d="M455,198
			c0-0.533,0.2-1,0.6-1.4c0.4-0.4,0.867-0.6,1.4-0.6c0.56,0,1.033,0.2,1.42,0.6c0.387,0.4,0.58,0.867,0.58,1.4
			c0,0.56-0.193,1.033-0.58,1.42c-0.387,0.387-0.86,0.58-1.42,0.58c-0.533,0-1-0.193-1.4-0.58C455.2,199.033,455,198.56,455,198z
			 M465,198c0-0.533,0.2-1,0.6-1.4c0.4-0.4,0.867-0.6,1.4-0.6c0.56,0,1.033,0.2,1.42,0.6c0.387,0.4,0.58,0.867,0.58,1.4
			c0,0.56-0.193,1.033-0.58,1.42c-0.387,0.387-0.86,0.58-1.42,0.58c-0.533,0-1-0.193-1.4-0.58C465.2,199.033,465,198.56,465,198z
			 M458.56,193.28c-0.48,0.133-0.707,0.287-0.68,0.46c0.027,0.173,0.32,0.26,0.88,0.26H470v1.52c0,0.267-0.133,0.4-0.4,0.4h-13.08
			c-0.267,0-0.4-0.133-0.4-0.4V194l-0.2-0.92l-1.96-9.08H452v-1.6c0-0.267,0.133-0.4,0.4-0.4h3.12c0.267,0,0.4,0.133,0.4,0.4v1.72
			H470v5.48c0,0.293-0.12,0.467-0.36,0.52L458.56,193.28z"/>
		<path id="convenience_x5F_store" fill="#FA8C00" d="M368,397c0-0.533,0.2-1,0.6-1.4s0.867-0.6,1.4-0.6c0.56,0,1.033,0.2,1.42,0.6
			c0.387,0.4,0.58,0.867,0.58,1.4c0,0.56-0.193,1.033-0.58,1.42c-0.387,0.387-0.86,0.58-1.42,0.58c-0.533,0-1-0.193-1.4-0.58
			C368.2,398.033,368,397.56,368,397z M378,397c0-0.533,0.2-1,0.6-1.4s0.867-0.6,1.4-0.6c0.56,0,1.033,0.2,1.42,0.6
			c0.387,0.4,0.58,0.867,0.58,1.4c0,0.56-0.193,1.033-0.58,1.42c-0.387,0.387-0.86,0.58-1.42,0.58c-0.533,0-1-0.193-1.4-0.58
			C378.2,398.033,378,397.56,378,397z M371.56,392.28c-0.48,0.133-0.707,0.287-0.68,0.46c0.027,0.173,0.32,0.26,0.88,0.26H383v1.52
			c0,0.267-0.133,0.4-0.4,0.4h-13.08c-0.267,0-0.4-0.133-0.4-0.4V393l-0.2-0.92l-1.96-9.08H365v-1.6c0-0.267,0.133-0.4,0.4-0.4h3.12
			c0.267,0,0.4,0.133,0.4,0.4v1.72H383v5.48c0,0.293-0.12,0.467-0.36,0.52L371.56,392.28z"/>
	</g>
	<image width="322" height="326" id="machine" xlink:href="1E42840254E8DAE7.png"  transform="matrix(1 0 0 1 211 116)">
	</image>
	<g id="house_00000059305305490402857830000017306451430902585224_">
		<path id="house" fill="#09BB9F" d="M479.017,210.62c4.293,3.72,7.627,6.58,10,8.58c0.267,0.213,0.4,0.48,0.4,0.8
			c0,0.28-0.1,0.527-0.3,0.74s-0.44,0.313-0.72,0.3h-2.1v7.28c0,0.28-0.1,0.527-0.3,0.74c-0.2,0.213-0.44,0.32-0.72,0.32h-3.12
			c-0.293,0-0.54-0.107-0.74-0.32c-0.2-0.213-0.307-0.46-0.32-0.74v-4.16h-4.18v4.16c0,0.28-0.1,0.527-0.3,0.74
			s-0.44,0.32-0.72,0.32h-3.12c-0.28,0-0.527-0.107-0.74-0.32c-0.213-0.213-0.32-0.46-0.32-0.74v-7.28h-2.06
			c-0.293,0-0.54-0.1-0.74-0.3c-0.2-0.2-0.307-0.447-0.32-0.74c-0.013-0.293,0.113-0.56,0.38-0.8L479.017,210.62z"/>
		<text transform="matrix(1 0 0 1 482.2333 185.985)" font-family="'ArialMT'" font-size="16px">My </text>
		<text transform="matrix(1 0 0 1 482.2333 205.1852)" font-family="'ArialMT'" font-size="16px">House</text>
	</g>
</g>
<g id="ai2html-settings">
	<text transform="matrix(1 0 0 1 12.3112 597.8042)" font-family="'MyriadPro-Regular'" font-size="12px">a</text>
	<text transform="matrix(1 0 0 1 18.0954 597.8042)" font-family="'MyriadPro-Regular'" font-size="12px">i</text>
	<text transform="matrix(1 0 0 1 20.903 597.8042)" font-family="'MyriadPro-Regular'" font-size="12px">2</text>
	<text transform="matrix(1 0 0 1 27.0593 597.8042)" font-family="'MyriadPro-Regular'" font-size="12px">h</text>
	<text transform="matrix(1 0 0 1 33.6706 597.8042)" font-family="'MyriadPro-Regular'" font-size="12px">t</text>
	<text transform="matrix(1 0 0 1 37.6433 597.8042)" font-family="'MyriadPro-Regular'" font-size="12px">m</text>
	<text transform="matrix(1 0 0 1 47.6511 597.8042)" font-family="'MyriadPro-Regular'" font-size="12px">l</text>
	<text transform="matrix(1 0 0 1 50.4831 597.8042)" font-family="'MyriadPro-Regular'" font-size="12px">-</text>
	<text transform="matrix(1 0 0 1 54.1667 597.8042)" font-family="'MyriadPro-Regular'" font-size="12px">s</text>
	<text transform="matrix(1 0 0 1 58.9187 597.8042)" font-family="'MyriadPro-Regular'" font-size="12px">e</text>
	<text transform="matrix(1 0 0 1 64.9304 597.8042)" font-family="'MyriadPro-Regular'" font-size="12px">t</text>
	<text transform="matrix(1 0 0 1 68.9021 597.8042)" font-family="'MyriadPro-Regular'" font-size="12px">t</text>
	<text transform="matrix(1 0 0 1 72.8747 597.8042)" font-family="'MyriadPro-Regular'" font-size="12px">i</text>
	<text transform="matrix(1 0 0 1 75.6823 597.8042)" font-family="'MyriadPro-Regular'" font-size="12px">n</text>
	<text transform="matrix(1 0 0 1 82.3425 597.8042)" font-family="'MyriadPro-Regular'" font-size="12px">g</text>
	<text transform="matrix(1 0 0 1 89.0495 597.8042)" font-family="'MyriadPro-Regular'" font-size="12px">s</text>
	<text transform="matrix(1 0 0 1 12.3112 612.2046)" font-family="'MyriadPro-Regular'" font-size="12px">s</text>
	<text transform="matrix(1 0 0 1 17.0632 612.2046)" font-family="'MyriadPro-Regular'" font-size="12px">e</text>
	<text transform="matrix(1 0 0 1 23.0749 612.2046)" font-family="'MyriadPro-Regular'" font-size="12px">t</text>
	<text transform="matrix(1 0 0 1 27.0466 612.2046)" font-family="'MyriadPro-Regular'" font-size="12px">t</text>
	<text transform="matrix(1 0 0 1 31.0193 612.2046)" font-family="'MyriadPro-Regular'" font-size="12px">i</text>
	<text transform="matrix(1 0 0 1 33.8269 612.2046)" font-family="'MyriadPro-Regular'" font-size="12px">n</text>
	<text transform="matrix(1 0 0 1 40.487 612.2046)" font-family="'MyriadPro-Regular'" font-size="12px">g</text>
	<text transform="matrix(1 0 0 1 47.195 612.2046)" font-family="'MyriadPro-Regular'" font-size="12px">s</text>
	<text transform="matrix(1 0 0 1 51.947 612.2046)" font-family="'MyriadPro-Regular'" font-size="12px">_</text>
	<text transform="matrix(1 0 0 1 57.947 612.2046)" font-family="'MyriadPro-Regular'" font-size="12px">v</text>
	<text transform="matrix(1 0 0 1 63.5984 612.2046)" font-family="'MyriadPro-Regular'" font-size="12px">e</text>
	<text transform="matrix(1 0 0 1 69.6101 612.2046)" font-family="'MyriadPro-Regular'" font-size="12px">r</text>
	<text transform="matrix(1 0 0 1 73.5339 612.2046)" font-family="'MyriadPro-Regular'" font-size="12px">s</text>
	<text transform="matrix(1 0 0 1 78.2859 612.2046)" font-family="'MyriadPro-Regular'" font-size="12px">i</text>
	<text transform="matrix(1 0 0 1 81.0945 612.2046)" font-family="'MyriadPro-Regular'" font-size="12px">o</text>
	<text transform="matrix(1 0 0 1 87.6823 612.2046)" font-family="'MyriadPro-Regular'" font-size="12px">n</text>
	<text transform="matrix(1 0 0 1 94.3425 612.2046)" font-family="'MyriadPro-Regular'" font-size="12px">:</text>
	<text transform="matrix(1 0 0 1 96.8259 612.2046)" font-family="'MyriadPro-Regular'" font-size="12px"> </text>
	<text transform="matrix(1 0 0 1 99.3698 612.2046)" font-family="'MyriadPro-Regular'" font-size="12px">0</text>
	<text transform="matrix(1 0 0 1 105.5261 612.2046)" font-family="'MyriadPro-Regular'" font-size="12px">.</text>
	<text transform="matrix(1 0 0 1 108.0095 612.2046)" font-family="'MyriadPro-Regular'" font-size="12px">1</text>
	<text transform="matrix(1 0 0 1 114.1657 612.2046)" font-family="'MyriadPro-Regular'" font-size="12px">1</text>
	<text transform="matrix(1 0 0 1 120.321 612.2046)" font-family="'MyriadPro-Regular'" font-size="12px">3</text>
	<text transform="matrix(1 0 0 1 126.4773 612.2046)" font-family="'MyriadPro-Regular'" font-size="12px">.</text>
	<text transform="matrix(1 0 0 1 128.9607 612.2046)" font-family="'MyriadPro-Regular'" font-size="12px">0</text>
	<text transform="matrix(1 0 0 1 12.3112 626.604)" font-family="'MyriadPro-Regular'" font-size="12px">i</text>
	<text transform="matrix(1 0 0 1 15.1189 626.604)" font-family="'MyriadPro-Regular'" font-size="12px">m</text>
	<text transform="matrix(1 0 0 1 25.1277 626.604)" font-family="'MyriadPro-Regular'" font-size="12px">a</text>
	<text transform="matrix(1 0 0 1 30.9109 626.604)" font-family="'MyriadPro-Regular'" font-size="12px">g</text>
	<text transform="matrix(1 0 0 1 37.6189 626.604)" font-family="'MyriadPro-Regular'" font-size="12px">e</text>
	<text transform="matrix(1 0 0 1 43.6306 626.604)" font-family="'MyriadPro-Regular'" font-size="12px">_</text>
	<text transform="matrix(1 0 0 1 49.6306 626.604)" font-family="'MyriadPro-Regular'" font-size="12px">f</text>
	<text transform="matrix(1 0 0 1 52.9792 626.604)" font-family="'MyriadPro-Regular'" font-size="12px">o</text>
	<text transform="matrix(1 0 0 1 59.5671 626.604)" font-family="'MyriadPro-Regular'" font-size="12px">r</text>
	<text transform="matrix(1 0 0 1 63.5388 626.604)" font-family="'MyriadPro-Regular'" font-size="12px">m</text>
	<text transform="matrix(1 0 0 1 73.5466 626.604)" font-family="'MyriadPro-Regular'" font-size="12px">a</text>
	<text transform="matrix(1 0 0 1 79.2829 626.604)" font-family="'MyriadPro-Regular'" font-size="12px">t</text>
	<text transform="matrix(1 0 0 1 83.2546 626.604)" font-family="'MyriadPro-Regular'" font-size="12px">:</text>
	<text transform="matrix(1 0 0 1 85.739 626.604)" font-family="'MyriadPro-Regular'" font-size="12px"> </text>
	<text transform="matrix(1 0 0 1 88.282 626.604)" font-family="'MyriadPro-Regular'" font-size="12px">a</text>
	<text transform="matrix(1 0 0 1 94.0661 626.604)" font-family="'MyriadPro-Regular'" font-size="12px">u</text>
	<text transform="matrix(1 0 0 1 100.6784 626.604)" font-family="'MyriadPro-Regular'" font-size="12px">t</text>
	<text transform="matrix(1 0 0 1 104.5779 626.604)" font-family="'MyriadPro-Regular'" font-size="12px">o</text>
	<text transform="matrix(1 0 0 1 12.3112 641.0044)" font-family="'MyriadPro-Regular'" font-size="12px">i</text>
	<text transform="matrix(1 0 0 1 15.1189 641.0044)" font-family="'MyriadPro-Regular'" font-size="12px">n</text>
	<text transform="matrix(1 0 0 1 21.779 641.0044)" font-family="'MyriadPro-Regular'" font-size="12px">l</text>
	<text transform="matrix(1 0 0 1 24.6111 641.0044)" font-family="'MyriadPro-Regular'" font-size="12px">i</text>
	<text transform="matrix(1 0 0 1 27.4187 641.0044)" font-family="'MyriadPro-Regular'" font-size="12px">n</text>
	<text transform="matrix(1 0 0 1 34.0788 641.0044)" font-family="'MyriadPro-Regular'" font-size="12px">e</text>
	<text transform="matrix(1 0 0 1 40.0905 641.0044)" font-family="'MyriadPro-Regular'" font-size="12px">_</text>
	<text transform="matrix(1 0 0 1 46.0905 641.0044)" font-family="'MyriadPro-Regular'" font-size="12px">s</text>
	<text transform="matrix(1 0 0 1 50.8425 641.0044)" font-family="'MyriadPro-Regular'" font-size="12px">v</text>
	<text transform="matrix(1 0 0 1 56.4948 641.0044)" font-family="'MyriadPro-Regular'" font-size="12px">g</text>
	<text transform="matrix(1 0 0 1 63.2029 641.0044)" font-family="'MyriadPro-Regular'" font-size="12px">:</text>
	<text transform="matrix(1 0 0 1 65.6862 641.0044)" font-family="'MyriadPro-Regular'" font-size="12px"> </text>
	<text transform="matrix(1 0 0 1 68.2302 641.0044)" font-family="'MyriadPro-Regular'" font-size="12px">t</text>
	<text transform="matrix(1 0 0 1 72.2019 641.0044)" font-family="'MyriadPro-Regular'" font-size="12px">r</text>
	<text transform="matrix(1 0 0 1 76.1257 641.0044)" font-family="'MyriadPro-Regular'" font-size="12px">u</text>
	<text transform="matrix(1 0 0 1 82.738 641.0044)" font-family="'MyriadPro-Regular'" font-size="12px">e</text>
	<text transform="matrix(1 0 0 1 12.3112 655.4038)" font-family="'MyriadPro-Regular'" font-size="12px">r</text>
	<text transform="matrix(1 0 0 1 16.115 655.4038)" font-family="'MyriadPro-Regular'" font-size="12px">e</text>
	<text transform="matrix(1 0 0 1 22.1277 655.4038)" font-family="'MyriadPro-Regular'" font-size="12px">s</text>
	<text transform="matrix(1 0 0 1 26.8796 655.4038)" font-family="'MyriadPro-Regular'" font-size="12px">p</text>
	<text transform="matrix(1 0 0 1 33.7068 655.4038)" font-family="'MyriadPro-Regular'" font-size="12px">o</text>
	<text transform="matrix(1 0 0 1 40.2946 655.4038)" font-family="'MyriadPro-Regular'" font-size="12px">n</text>
	<text transform="matrix(1 0 0 1 46.9548 655.4038)" font-family="'MyriadPro-Regular'" font-size="12px">s</text>
	<text transform="matrix(1 0 0 1 51.7068 655.4038)" font-family="'MyriadPro-Regular'" font-size="12px">i</text>
	<text transform="matrix(1 0 0 1 54.5144 655.4038)" font-family="'MyriadPro-Regular'" font-size="12px">v</text>
	<text transform="matrix(1 0 0 1 60.1667 655.4038)" font-family="'MyriadPro-Regular'" font-size="12px">e</text>
	<text transform="matrix(1 0 0 1 66.1784 655.4038)" font-family="'MyriadPro-Regular'" font-size="12px">n</text>
	<text transform="matrix(1 0 0 1 72.8386 655.4038)" font-family="'MyriadPro-Regular'" font-size="12px">e</text>
	<text transform="matrix(1 0 0 1 78.8503 655.4038)" font-family="'MyriadPro-Regular'" font-size="12px">s</text>
	<text transform="matrix(1 0 0 1 83.6023 655.4038)" font-family="'MyriadPro-Regular'" font-size="12px">s</text>
	<text transform="matrix(1 0 0 1 88.3542 655.4038)" font-family="'MyriadPro-Regular'" font-size="12px">:</text>
	<text transform="matrix(1 0 0 1 90.8376 655.4038)" font-family="'MyriadPro-Regular'" font-size="12px"> </text>
	<text transform="matrix(1 0 0 1 93.3816 655.4038)" font-family="'MyriadPro-Regular'" font-size="12px"> </text>
	<text transform="matrix(1 0 0 1 99.3816 655.4038)" font-family="'MyriadPro-Regular'" font-size="12px">x</text>
	<text transform="matrix(1 0 0 1 104.7575 655.4038)" font-family="'MyriadPro-Regular'" font-size="12px">e</text>
	<text transform="matrix(1 0 0 1 110.7702 655.4038)" font-family="'MyriadPro-Regular'" font-size="12px">d</text>
	<text transform="matrix(1 0 0 1 12.3112 669.8042)" font-family="'MyriadPro-Regular'" font-size="12px">o</text>
	<text transform="matrix(1 0 0 1 18.8991 669.8042)" font-family="'MyriadPro-Regular'" font-size="12px">u</text>
	<text transform="matrix(1 0 0 1 25.5114 669.8042)" font-family="'MyriadPro-Regular'" font-size="12px">t</text>
	<text transform="matrix(1 0 0 1 29.4831 669.8042)" font-family="'MyriadPro-Regular'" font-size="12px">p</text>
	<text transform="matrix(1 0 0 1 36.3112 669.8042)" font-family="'MyriadPro-Regular'" font-size="12px">u</text>
	<text transform="matrix(1 0 0 1 42.9226 669.8042)" font-family="'MyriadPro-Regular'" font-size="12px">t</text>
	<text transform="matrix(1 0 0 1 46.8952 669.8042)" font-family="'MyriadPro-Regular'" font-size="12px">:</text>
	<text transform="matrix(1 0 0 1 49.3786 669.8042)" font-family="'MyriadPro-Regular'" font-size="12px"> </text>
	<text transform="matrix(1 0 0 1 51.9226 669.8042)" font-family="'MyriadPro-Regular'" font-size="12px">o</text>
	<text transform="matrix(1 0 0 1 58.5105 669.8042)" font-family="'MyriadPro-Regular'" font-size="12px">n</text>
	<text transform="matrix(1 0 0 1 65.1706 669.8042)" font-family="'MyriadPro-Regular'" font-size="12px">e</text>
	<text transform="matrix(1 0 0 1 71.5183 669.8042)" font-family="'MyriadPro-Regular'" font-size="12px">-</text>
	<text transform="matrix(1 0 0 1 75.2019 669.8042)" font-family="'MyriadPro-Regular'" font-size="12px"> </text>
	<text transform="matrix(1 0 0 1 81.2019 669.8042)" font-family="'MyriadPro-Regular'" font-size="12px">l</text>
	<text transform="matrix(1 0 0 1 84.0339 669.8042)" font-family="'MyriadPro-Regular'" font-size="12px">e</text>
	<text transform="matrix(1 0 0 1 12.3112 684.2046)" font-family="'MyriadPro-Regular'" font-size="12px">h</text>
	<text transform="matrix(1 0 0 1 18.9236 684.2046)" font-family="'MyriadPro-Regular'" font-size="12px">t</text>
	<text transform="matrix(1 0 0 1 22.8952 684.2046)" font-family="'MyriadPro-Regular'" font-size="12px">m</text>
	<text transform="matrix(1 0 0 1 32.903 684.2046)" font-family="'MyriadPro-Regular'" font-size="12px">l</text>
	<text transform="matrix(1 0 0 1 35.7351 684.2046)" font-family="'MyriadPro-Regular'" font-size="12px">_</text>
	<text transform="matrix(1 0 0 1 41.7351 684.2046)" font-family="'MyriadPro-Regular'" font-size="12px">o</text>
	<text transform="matrix(1 0 0 1 48.323 684.2046)" font-family="'MyriadPro-Regular'" font-size="12px">u</text>
	<text transform="matrix(1 0 0 1 54.9353 684.2046)" font-family="'MyriadPro-Regular'" font-size="12px">t</text>
	<text transform="matrix(1 0 0 1 58.907 684.2046)" font-family="'MyriadPro-Regular'" font-size="12px">p</text>
	<text transform="matrix(1 0 0 1 65.7351 684.2046)" font-family="'MyriadPro-Regular'" font-size="12px">u</text>
	<text transform="matrix(1 0 0 1 72.3464 684.2046)" font-family="'MyriadPro-Regular'" font-size="12px">t</text>
	<text transform="matrix(1 0 0 1 76.3181 684.2046)" font-family="'MyriadPro-Regular'" font-size="12px">_</text>
	<text transform="matrix(1 0 0 1 82.3181 684.2046)" font-family="'MyriadPro-Regular'" font-size="12px">p</text>
	<text transform="matrix(1 0 0 1 89.1462 684.2046)" font-family="'MyriadPro-Regular'" font-size="12px">a</text>
	<text transform="matrix(1 0 0 1 94.8825 684.2046)" font-family="'MyriadPro-Regular'" font-size="12px">t</text>
	<text transform="matrix(1 0 0 1 98.8542 684.2046)" font-family="'MyriadPro-Regular'" font-size="12px">h</text>
	<text transform="matrix(1 0 0 1 105.5144 684.2046)" font-family="'MyriadPro-Regular'" font-size="12px">:</text>
	<text transform="matrix(1 0 0 1 107.9978 684.2046)" font-family="'MyriadPro-Regular'" font-size="12px"> </text>
	<text transform="matrix(1 0 0 1 110.5417 684.2046)" font-family="'MyriadPro-Regular'" font-size="12px">/</text>
	<text transform="matrix(1 0 0 1 114.6579 684.2046)" font-family="'MyriadPro-Regular'" font-size="12px">a</text>
	<text transform="matrix(1 0 0 1 120.4421 684.2046)" font-family="'MyriadPro-Regular'" font-size="12px">i</text>
	<text transform="matrix(1 0 0 1 123.2497 684.2046)" font-family="'MyriadPro-Regular'" font-size="12px">2</text>
	<text transform="matrix(1 0 0 1 129.405 684.2046)" font-family="'MyriadPro-Regular'" font-size="12px">h</text>
	<text transform="matrix(1 0 0 1 136.0173 684.2046)" font-family="'MyriadPro-Regular'" font-size="12px">t</text>
	<text transform="matrix(1 0 0 1 139.989 684.2046)" font-family="'MyriadPro-Regular'" font-size="12px">m</text>
	<text transform="matrix(1 0 0 1 149.9968 684.2046)" font-family="'MyriadPro-Regular'" font-size="12px">l</text>
	<text transform="matrix(1 0 0 1 152.8288 684.2046)" font-family="'MyriadPro-Regular'" font-size="12px">-</text>
	<text transform="matrix(1 0 0 1 156.7292 684.2046)" font-family="'MyriadPro-Regular'" font-size="12px">o</text>
	<text transform="matrix(1 0 0 1 163.3171 684.2046)" font-family="'MyriadPro-Regular'" font-size="12px">u</text>
	<text transform="matrix(1 0 0 1 169.9284 684.2046)" font-family="'MyriadPro-Regular'" font-size="12px">t</text>
	<text transform="matrix(1 0 0 1 173.9011 684.2046)" font-family="'MyriadPro-Regular'" font-size="12px">p</text>
	<text transform="matrix(1 0 0 1 180.7282 684.2046)" font-family="'MyriadPro-Regular'" font-size="12px">u</text>
	<text transform="matrix(1 0 0 1 187.3405 684.2046)" font-family="'MyriadPro-Regular'" font-size="12px">t</text>
	<text transform="matrix(1 0 0 1 191.3122 684.2046)" font-family="'MyriadPro-Regular'" font-size="12px">/</text>
	<text transform="matrix(1 0 0 1 12.3112 698.604)" font-family="'MyriadPro-Regular'" font-size="12px">h</text>
	<text transform="matrix(1 0 0 1 18.9236 698.604)" font-family="'MyriadPro-Regular'" font-size="12px">t</text>
	<text transform="matrix(1 0 0 1 22.8952 698.604)" font-family="'MyriadPro-Regular'" font-size="12px">m</text>
	<text transform="matrix(1 0 0 1 32.903 698.604)" font-family="'MyriadPro-Regular'" font-size="12px">l</text>
	<text transform="matrix(1 0 0 1 35.7351 698.604)" font-family="'MyriadPro-Regular'" font-size="12px">_</text>
	<text transform="matrix(1 0 0 1 41.7351 698.604)" font-family="'MyriadPro-Regular'" font-size="12px">o</text>
	<text transform="matrix(1 0 0 1 48.323 698.604)" font-family="'MyriadPro-Regular'" font-size="12px">u</text>
	<text transform="matrix(1 0 0 1 54.9353 698.604)" font-family="'MyriadPro-Regular'" font-size="12px">t</text>
	<text transform="matrix(1 0 0 1 58.907 698.604)" font-family="'MyriadPro-Regular'" font-size="12px">p</text>
	<text transform="matrix(1 0 0 1 65.7351 698.604)" font-family="'MyriadPro-Regular'" font-size="12px">u</text>
	<text transform="matrix(1 0 0 1 72.3464 698.604)" font-family="'MyriadPro-Regular'" font-size="12px">t</text>
	<text transform="matrix(1 0 0 1 76.3181 698.604)" font-family="'MyriadPro-Regular'" font-size="12px">_</text>
	<text transform="matrix(1 0 0 1 82.3181 698.604)" font-family="'MyriadPro-Regular'" font-size="12px">e</text>
	<text transform="matrix(1 0 0 1 88.2946 698.604)" font-family="'MyriadPro-Regular'" font-size="12px">x</text>
	<text transform="matrix(1 0 0 1 94.0066 698.604)" font-family="'MyriadPro-Regular'" font-size="12px">t</text>
	<text transform="matrix(1 0 0 1 97.906 698.604)" font-family="'MyriadPro-Regular'" font-size="12px">e</text>
	<text transform="matrix(1 0 0 1 103.9187 698.604)" font-family="'MyriadPro-Regular'" font-size="12px">n</text>
	<text transform="matrix(1 0 0 1 110.5779 698.604)" font-family="'MyriadPro-Regular'" font-size="12px">s</text>
	<text transform="matrix(1 0 0 1 115.3298 698.604)" font-family="'MyriadPro-Regular'" font-size="12px">i</text>
	<text transform="matrix(1 0 0 1 118.1384 698.604)" font-family="'MyriadPro-Regular'" font-size="12px">o</text>
	<text transform="matrix(1 0 0 1 124.7263 698.604)" font-family="'MyriadPro-Regular'" font-size="12px">n</text>
	<text transform="matrix(1 0 0 1 131.3855 698.604)" font-family="'MyriadPro-Regular'" font-size="12px">:</text>
	<text transform="matrix(1 0 0 1 133.8698 698.604)" font-family="'MyriadPro-Regular'" font-size="12px"> </text>
	<text transform="matrix(1 0 0 1 136.4138 698.604)" font-family="'MyriadPro-Regular'" font-size="12px">.</text>
	<text transform="matrix(1 0 0 1 138.8972 698.604)" font-family="'MyriadPro-Regular'" font-size="12px">h</text>
	<text transform="matrix(1 0 0 1 145.5095 698.604)" font-family="'MyriadPro-Regular'" font-size="12px">t</text>
	<text transform="matrix(1 0 0 1 149.4812 698.604)" font-family="'MyriadPro-Regular'" font-size="12px">m</text>
	<text transform="matrix(1 0 0 1 159.489 698.604)" font-family="'MyriadPro-Regular'" font-size="12px">l</text>
	<text transform="matrix(1 0 0 1 12.3112 713.0044)" font-family="'MyriadPro-Regular'" font-size="12px">i</text>
	<text transform="matrix(1 0 0 1 15.1189 713.0044)" font-family="'MyriadPro-Regular'" font-size="12px">m</text>
	<text transform="matrix(1 0 0 1 25.1277 713.0044)" font-family="'MyriadPro-Regular'" font-size="12px">a</text>
	<text transform="matrix(1 0 0 1 30.9109 713.0044)" font-family="'MyriadPro-Regular'" font-size="12px">g</text>
	<text transform="matrix(1 0 0 1 37.6189 713.0044)" font-family="'MyriadPro-Regular'" font-size="12px">e</text>
	<text transform="matrix(1 0 0 1 43.6306 713.0044)" font-family="'MyriadPro-Regular'" font-size="12px">_</text>
	<text transform="matrix(1 0 0 1 49.6306 713.0044)" font-family="'MyriadPro-Regular'" font-size="12px">o</text>
	<text transform="matrix(1 0 0 1 56.2185 713.0044)" font-family="'MyriadPro-Regular'" font-size="12px">u</text>
	<text transform="matrix(1 0 0 1 62.8308 713.0044)" font-family="'MyriadPro-Regular'" font-size="12px">t</text>
	<text transform="matrix(1 0 0 1 66.8025 713.0044)" font-family="'MyriadPro-Regular'" font-size="12px">p</text>
	<text transform="matrix(1 0 0 1 73.6306 713.0044)" font-family="'MyriadPro-Regular'" font-size="12px">u</text>
	<text transform="matrix(1 0 0 1 80.2429 713.0044)" font-family="'MyriadPro-Regular'" font-size="12px">t</text>
	<text transform="matrix(1 0 0 1 84.2146 713.0044)" font-family="'MyriadPro-Regular'" font-size="12px">_</text>
	<text transform="matrix(1 0 0 1 90.2146 713.0044)" font-family="'MyriadPro-Regular'" font-size="12px">p</text>
	<text transform="matrix(1 0 0 1 97.0417 713.0044)" font-family="'MyriadPro-Regular'" font-size="12px">a</text>
	<text transform="matrix(1 0 0 1 102.778 713.0044)" font-family="'MyriadPro-Regular'" font-size="12px">t</text>
	<text transform="matrix(1 0 0 1 106.7497 713.0044)" font-family="'MyriadPro-Regular'" font-size="12px">h</text>
	<text transform="matrix(1 0 0 1 113.4099 713.0044)" font-family="'MyriadPro-Regular'" font-size="12px">:</text>
	<text transform="matrix(1 0 0 1 12.3112 727.4038)" font-family="'MyriadPro-Regular'" font-size="12px">l</text>
	<text transform="matrix(1 0 0 1 15.1433 727.4038)" font-family="'MyriadPro-Regular'" font-size="12px">o</text>
	<text transform="matrix(1 0 0 1 21.7312 727.4038)" font-family="'MyriadPro-Regular'" font-size="12px">c</text>
	<text transform="matrix(1 0 0 1 27.1071 727.4038)" font-family="'MyriadPro-Regular'" font-size="12px">a</text>
	<text transform="matrix(1 0 0 1 32.8913 727.4038)" font-family="'MyriadPro-Regular'" font-size="12px">l</text>
	<text transform="matrix(1 0 0 1 35.7234 727.4038)" font-family="'MyriadPro-Regular'" font-size="12px">_</text>
	<text transform="matrix(1 0 0 1 41.7234 727.4038)" font-family="'MyriadPro-Regular'" font-size="12px">p</text>
	<text transform="matrix(1 0 0 1 48.5505 727.4038)" font-family="'MyriadPro-Regular'" font-size="12px">r</text>
	<text transform="matrix(1 0 0 1 52.3552 727.4038)" font-family="'MyriadPro-Regular'" font-size="12px">e</text>
	<text transform="matrix(1 0 0 1 58.3669 727.4038)" font-family="'MyriadPro-Regular'" font-size="12px">v</text>
	<text transform="matrix(1 0 0 1 64.1384 727.4038)" font-family="'MyriadPro-Regular'" font-size="12px">i</text>
	<text transform="matrix(1 0 0 1 66.946 727.4038)" font-family="'MyriadPro-Regular'" font-size="12px">e</text>
	<text transform="matrix(1 0 0 1 72.9587 727.4038)" font-family="'MyriadPro-Regular'" font-size="12px">w</text>
	<text transform="matrix(1 0 0 1 81.7898 727.4038)" font-family="'MyriadPro-Regular'" font-size="12px">_</text>
	<text transform="matrix(1 0 0 1 87.7898 727.4038)" font-family="'MyriadPro-Regular'" font-size="12px">t</text>
	<text transform="matrix(1 0 0 1 91.6902 727.4038)" font-family="'MyriadPro-Regular'" font-size="12px">e</text>
	<text transform="matrix(1 0 0 1 97.7019 727.4038)" font-family="'MyriadPro-Regular'" font-size="12px">m</text>
	<text transform="matrix(1 0 0 1 107.7097 727.4038)" font-family="'MyriadPro-Regular'" font-size="12px">p</text>
	<text transform="matrix(1 0 0 1 114.5378 727.4038)" font-family="'MyriadPro-Regular'" font-size="12px">l</text>
	<text transform="matrix(1 0 0 1 117.3698 727.4038)" font-family="'MyriadPro-Regular'" font-size="12px">a</text>
	<text transform="matrix(1 0 0 1 123.1062 727.4038)" font-family="'MyriadPro-Regular'" font-size="12px">t</text>
	<text transform="matrix(1 0 0 1 127.0056 727.4038)" font-family="'MyriadPro-Regular'" font-size="12px">e</text>
	<text transform="matrix(1 0 0 1 133.0173 727.4038)" font-family="'MyriadPro-Regular'" font-size="12px">:</text>
	<text transform="matrix(1 0 0 1 12.3112 741.8042)" font-family="'MyriadPro-Regular'" font-size="12px">p</text>
	<text transform="matrix(1 0 0 1 19.1394 741.8042)" font-family="'MyriadPro-Regular'" font-size="12px">n</text>
	<text transform="matrix(1 0 0 1 25.7986 741.8042)" font-family="'MyriadPro-Regular'" font-size="12px">g</text>
	<text transform="matrix(1 0 0 1 32.5066 741.8042)" font-family="'MyriadPro-Regular'" font-size="12px">_</text>
	<text transform="matrix(1 0 0 1 38.5066 741.8042)" font-family="'MyriadPro-Regular'" font-size="12px">n</text>
	<text transform="matrix(1 0 0 1 45.1667 741.8042)" font-family="'MyriadPro-Regular'" font-size="12px">u</text>
	<text transform="matrix(1 0 0 1 51.779 741.8042)" font-family="'MyriadPro-Regular'" font-size="12px">m</text>
	<text transform="matrix(1 0 0 1 61.7868 741.8042)" font-family="'MyriadPro-Regular'" font-size="12px">b</text>
	<text transform="matrix(1 0 0 1 68.615 741.8042)" font-family="'MyriadPro-Regular'" font-size="12px">e</text>
	<text transform="matrix(1 0 0 1 74.6267 741.8042)" font-family="'MyriadPro-Regular'" font-size="12px">r</text>
	<text transform="matrix(1 0 0 1 78.5505 741.8042)" font-family="'MyriadPro-Regular'" font-size="12px">_</text>
	<text transform="matrix(1 0 0 1 84.5505 741.8042)" font-family="'MyriadPro-Regular'" font-size="12px">o</text>
	<text transform="matrix(1 0 0 1 91.1384 741.8042)" font-family="'MyriadPro-Regular'" font-size="12px">f</text>
	<text transform="matrix(1 0 0 1 94.6423 741.8042)" font-family="'MyriadPro-Regular'" font-size="12px">_</text>
	<text transform="matrix(1 0 0 1 100.6423 741.8042)" font-family="'MyriadPro-Regular'" font-size="12px">c</text>
	<text transform="matrix(1 0 0 1 105.946 741.8042)" font-family="'MyriadPro-Regular'" font-size="12px">o</text>
	<text transform="matrix(1 0 0 1 112.5339 741.8042)" font-family="'MyriadPro-Regular'" font-size="12px">l</text>
	<text transform="matrix(1 0 0 1 115.3659 741.8042)" font-family="'MyriadPro-Regular'" font-size="12px">o</text>
	<text transform="matrix(1 0 0 1 121.9538 741.8042)" font-family="'MyriadPro-Regular'" font-size="12px">r</text>
	<text transform="matrix(1 0 0 1 125.8777 741.8042)" font-family="'MyriadPro-Regular'" font-size="12px">s</text>
	<text transform="matrix(1 0 0 1 130.6296 741.8042)" font-family="'MyriadPro-Regular'" font-size="12px">:</text>
	<text transform="matrix(1 0 0 1 133.114 741.8042)" font-family="'MyriadPro-Regular'" font-size="12px"> </text>
	<text transform="matrix(1 0 0 1 135.6579 741.8042)" font-family="'MyriadPro-Regular'" font-size="12px">1</text>
	<text transform="matrix(1 0 0 1 141.8132 741.8042)" font-family="'MyriadPro-Regular'" font-size="12px">2</text>
	<text transform="matrix(1 0 0 1 147.9695 741.8042)" font-family="'MyriadPro-Regular'" font-size="12px">8</text>
	<text transform="matrix(1 0 0 1 12.3112 756.2046)" font-family="'MyriadPro-Regular'" font-size="12px">j</text>
	<text transform="matrix(1 0 0 1 15.2273 756.2046)" font-family="'MyriadPro-Regular'" font-size="12px">p</text>
	<text transform="matrix(1 0 0 1 22.0554 756.2046)" font-family="'MyriadPro-Regular'" font-size="12px">g</text>
	<text transform="matrix(1 0 0 1 28.7624 756.2046)" font-family="'MyriadPro-Regular'" font-size="12px">_</text>
	<text transform="matrix(1 0 0 1 34.7624 756.2046)" font-family="'MyriadPro-Regular'" font-size="12px">q</text>
	<text transform="matrix(1 0 0 1 41.5183 756.2046)" font-family="'MyriadPro-Regular'" font-size="12px">u</text>
	<text transform="matrix(1 0 0 1 48.1306 756.2046)" font-family="'MyriadPro-Regular'" font-size="12px">a</text>
	<text transform="matrix(1 0 0 1 53.9148 756.2046)" font-family="'MyriadPro-Regular'" font-size="12px">l</text>
	<text transform="matrix(1 0 0 1 56.7468 756.2046)" font-family="'MyriadPro-Regular'" font-size="12px">i</text>
	<text transform="matrix(1 0 0 1 59.5544 756.2046)" font-family="'MyriadPro-Regular'" font-size="12px">t</text>
	<text transform="matrix(1 0 0 1 63.6345 756.2046)" font-family="'MyriadPro-Regular'" font-size="12px">y</text>
	<text transform="matrix(1 0 0 1 69.5739 756.2046)" font-family="'MyriadPro-Regular'" font-size="12px">:</text>
	<text transform="matrix(1 0 0 1 72.0573 756.2046)" font-family="'MyriadPro-Regular'" font-size="12px"> </text>
	<text transform="matrix(1 0 0 1 74.6013 756.2046)" font-family="'MyriadPro-Regular'" font-size="12px">6</text>
	<text transform="matrix(1 0 0 1 80.7575 756.2046)" font-family="'MyriadPro-Regular'" font-size="12px">0</text>
	<text transform="matrix(1 0 0 1 12.3112 770.604)" font-family="'MyriadPro-Regular'" font-size="12px">h</text>
	<text transform="matrix(1 0 0 1 18.9714 770.604)" font-family="'MyriadPro-Regular'" font-size="12px">e</text>
	<text transform="matrix(1 0 0 1 24.9831 770.604)" font-family="'MyriadPro-Regular'" font-size="12px">a</text>
	<text transform="matrix(1 0 0 1 30.7673 770.604)" font-family="'MyriadPro-Regular'" font-size="12px">d</text>
	<text transform="matrix(1 0 0 1 37.5349 770.604)" font-family="'MyriadPro-Regular'" font-size="12px">l</text>
	<text transform="matrix(1 0 0 1 40.3669 770.604)" font-family="'MyriadPro-Regular'" font-size="12px">i</text>
	<text transform="matrix(1 0 0 1 43.1745 770.604)" font-family="'MyriadPro-Regular'" font-size="12px">n</text>
	<text transform="matrix(1 0 0 1 49.8347 770.604)" font-family="'MyriadPro-Regular'" font-size="12px">e</text>
	<text transform="matrix(1 0 0 1 55.8464 770.604)" font-family="'MyriadPro-Regular'" font-size="12px">:</text>
	<text transform="matrix(1 0 0 1 12.3112 785.0044)" font-family="'MyriadPro-Regular'" font-size="12px">l</text>
	<text transform="matrix(1 0 0 1 15.1433 785.0044)" font-family="'MyriadPro-Regular'" font-size="12px">e</text>
	<text transform="matrix(1 0 0 1 21.155 785.0044)" font-family="'MyriadPro-Regular'" font-size="12px">a</text>
	<text transform="matrix(1 0 0 1 26.9392 785.0044)" font-family="'MyriadPro-Regular'" font-size="12px">d</text>
	<text transform="matrix(1 0 0 1 33.7068 785.0044)" font-family="'MyriadPro-Regular'" font-size="12px">i</text>
	<text transform="matrix(1 0 0 1 36.5144 785.0044)" font-family="'MyriadPro-Regular'" font-size="12px">n</text>
	<text transform="matrix(1 0 0 1 43.1745 785.0044)" font-family="'MyriadPro-Regular'" font-size="12px">:</text>
	<text transform="matrix(1 0 0 1 12.3112 799.4038)" font-family="'MyriadPro-Regular'" font-size="12px">n</text>
	<text transform="matrix(1 0 0 1 18.9714 799.4038)" font-family="'MyriadPro-Regular'" font-size="12px">o</text>
	<text transform="matrix(1 0 0 1 25.5593 799.4038)" font-family="'MyriadPro-Regular'" font-size="12px">t</text>
	<text transform="matrix(1 0 0 1 29.4587 799.4038)" font-family="'MyriadPro-Regular'" font-size="12px">e</text>
	<text transform="matrix(1 0 0 1 35.4714 799.4038)" font-family="'MyriadPro-Regular'" font-size="12px">s</text>
	<text transform="matrix(1 0 0 1 40.2234 799.4038)" font-family="'MyriadPro-Regular'" font-size="12px">:</text>
	<text transform="matrix(1 0 0 1 12.3112 813.8042)" font-family="'MyriadPro-Regular'" font-size="12px">s</text>
	<text transform="matrix(1 0 0 1 17.0632 813.8042)" font-family="'MyriadPro-Regular'" font-size="12px">o</text>
	<text transform="matrix(1 0 0 1 23.6511 813.8042)" font-family="'MyriadPro-Regular'" font-size="12px">u</text>
	<text transform="matrix(1 0 0 1 30.2634 813.8042)" font-family="'MyriadPro-Regular'" font-size="12px">r</text>
	<text transform="matrix(1 0 0 1 34.0671 813.8042)" font-family="'MyriadPro-Regular'" font-size="12px">c</text>
	<text transform="matrix(1 0 0 1 39.3708 813.8042)" font-family="'MyriadPro-Regular'" font-size="12px">e</text>
	<text transform="matrix(1 0 0 1 45.3835 813.8042)" font-family="'MyriadPro-Regular'" font-size="12px">s</text>
	<text transform="matrix(1 0 0 1 50.1355 813.8042)" font-family="'MyriadPro-Regular'" font-size="12px">:</text>
	<text transform="matrix(1 0 0 1 12.3112 828.2046)" font-family="'MyriadPro-Regular'" font-size="12px">c</text>
	<text transform="matrix(1 0 0 1 17.6872 828.2046)" font-family="'MyriadPro-Regular'" font-size="12px">r</text>
	<text transform="matrix(1 0 0 1 21.4909 828.2046)" font-family="'MyriadPro-Regular'" font-size="12px">e</text>
	<text transform="matrix(1 0 0 1 27.5027 828.2046)" font-family="'MyriadPro-Regular'" font-size="12px">d</text>
	<text transform="matrix(1 0 0 1 34.2712 828.2046)" font-family="'MyriadPro-Regular'" font-size="12px">i</text>
	<text transform="matrix(1 0 0 1 37.0788 828.2046)" font-family="'MyriadPro-Regular'" font-size="12px">t</text>
	<text transform="matrix(1 0 0 1 41.0505 828.2046)" font-family="'MyriadPro-Regular'" font-size="12px">:</text>
</g>
</svg>
